<?xml version="1.0" encoding="utf-8"?>
<!-- Generator: $$$/GeneralStr/196=Adobe Illustrator 27.6.0, SVG Export Plug-In . SVG Version: 6.00 Build 0)  -->
<svg version="1.1" id="Groupe_37" xmlns="http://www.w3.org/2000/svg" xmlns:xlink="http://www.w3.org/1999/xlink" x="0px" y="0px"
	 viewBox="0 0 1064.3 668" style="enable-background:new 0 0 1064.3 668;" xml:space="preserve">
<style type="text/css">
	.st0{clip-path:url(#SVGID_00000142164056805189634150000001093124033412536449_);}
	.st1{clip-path:url(#SVGID_00000089535463472826854220000004376088799732910991_);}
	.st2{fill:#EEC142;}
	.st3{clip-path:url(#SVGID_00000135658663981754474050000017216664826628554624_);}
	.st4{fill:#689DF7;}
	.st5{fill:#4951E0;}
	.st6{clip-path:url(#SVGID_00000028287653231390665090000017113388852203584439_);}
	.st7{fill:#FFFFFF;}
	.st8{fill:none;stroke:#EEC142;stroke-linecap:round;stroke-linejoin:round;}
	.st9{fill:#DE625E;}
	.st10{fill:#EFF0F4;}
	.st11{fill:#F3EBBE;}
	.st12{fill:#DA963C;}
	.st13{opacity:0.24;}
	.st14{clip-path:url(#SVGID_00000031167798195094159020000001736283596478577318_);}
	.st15{fill:#4148C7;}
	.st16{fill:#393A3D;}
	.st17{fill:#D5D9E9;}
	.st18{fill:#4376F8;}
	.st19{fill:none;stroke:#A1B1C9;stroke-linecap:round;stroke-linejoin:round;}
	.st20{fill:#AB304E;}
	.st21{fill:none;stroke:#393A3D;stroke-linecap:round;stroke-linejoin:round;}
	.st22{clip-path:url(#SVGID_00000111187339847837884530000011737090457470494616_);}
	.st23{fill:none;stroke:#DA963C;stroke-linecap:round;stroke-linejoin:round;}
	.st24{fill:none;stroke:#AB304E;stroke-linecap:round;stroke-linejoin:round;}
	.st25{clip-path:url(#SVGID_00000127024321310706019930000013067715307289596816_);}
	.st26{clip-path:url(#SVGID_00000163034666280242781420000003565946807636677506_);}
	.st27{opacity:0.64;}
	.st28{clip-path:url(#SVGID_00000036216271899970315550000015545811300772511656_);}
	.st29{clip-path:url(#SVGID_00000148643738842090201020000006334945085505478316_);}
	.st30{clip-path:url(#SVGID_00000002345321568009923580000007113153827619390394_);}
	.st31{clip-path:url(#SVGID_00000056389280656109065860000003800326176088854696_);}
	.st32{fill:#F8F5E2;}
	.st33{clip-path:url(#SVGID_00000079445035831857566900000014904647539534733245_);}
	.st34{clip-path:url(#SVGID_00000083078198109313815360000012087249182816337293_);}
	.st35{fill:none;stroke:#DE625E;stroke-linecap:round;stroke-linejoin:round;}
</style>
<g>
	<defs>
		<rect id="SVGID_1_" width="1064.3" height="708.6"/>
	</defs>
	<clipPath id="SVGID_00000000901279688716326440000004473189160704034457_">
		<use xlink:href="#SVGID_1_"  style="overflow:visible;"/>
	</clipPath>
	<g id="Groupe_104" style="clip-path:url(#SVGID_00000000901279688716326440000004473189160704034457_);">
		<g id="Groupe_72">
			<g>
				<defs>
					<rect id="SVGID_00000052787986961270095980000000355810497546692503_" width="1064.3" height="708.6"/>
				</defs>
				<clipPath id="SVGID_00000121250119162002266860000012241804523550341027_">
					<use xlink:href="#SVGID_00000052787986961270095980000000355810497546692503_"  style="overflow:visible;"/>
				</clipPath>
				<g id="Groupe_71" style="clip-path:url(#SVGID_00000121250119162002266860000012241804523550341027_);">
					<path id="Tracé_247" class="st2" d="M923.8,0.1H590.9V0H386.7v0.1H48.2c0,0,54,88.4,28.5,162.4C53,231.3,96.3,307.9,167,324.4
						s71.7,49.6,83.5,121.8c11.8,72.2,74.6,72.2,74.6,72.2l87.1-12h147.5l87.2,12c0,0,62.8,0,74.6-72.2S734.3,341,805,324.4
						s114.1-93.2,90.3-161.9C869.8,88.6,923.8,0.1,923.8,0.1"/>
				</g>
			</g>
		</g>
		<g id="Groupe_74" transform="translate(169.706 462.122)">
			<g>
				<defs>
					<rect id="SVGID_00000178191452718313742380000001154220149900954043_" x="0" y="0" width="632.6" height="205.8"/>
				</defs>
				<clipPath id="SVGID_00000051375871757103367080000013707198670739507842_">
					<use xlink:href="#SVGID_00000178191452718313742380000001154220149900954043_"  style="overflow:visible;"/>
				</clipPath>
				<g id="Groupe_73" style="clip-path:url(#SVGID_00000051375871757103367080000013707198670739507842_);">
					<path id="Tracé_248" class="st4" d="M616.6,205.6H16.1c0.9-2,1.8-4,2.7-6.1c0.5-1,0.9-2,1.4-3c0.3-0.6,0.5-1.2,0.8-1.8
						c0.5-1,0.9-2,1.4-2.9c0.2-0.4,0.4-0.9,0.6-1.3c0.6-1.2,1.2-2.5,1.8-3.7c0.7-1.4,1.5-2.9,2.2-4.3c0.2-0.3,0.3-0.6,0.5-0.9
						c0.6-1.1,1.2-2.2,1.8-3.3c17-31,38.9-59.1,64.9-83c2.3-2.2,4.7-4.3,7.1-6.4c1.2-1,2.4-2.1,3.6-3.1s2.5-2.1,3.7-3.1
						c2.3-1.9,4.7-3.8,7-5.6c2.9-2.3,5.9-4.5,8.9-6.7c3-2.2,6-4.3,9.1-6.3c6.1-4.1,12.3-8,18.6-11.6c8.4-4.9,16.9-9.4,25.6-13.4
						c1.5-0.7,2.9-1.4,4.4-2c78.1-34.9,166.7-37.9,247-8.4c12.1,4.4,23.8,9.5,35.3,15.4c28.8,14.6,55.2,33.4,78.4,55.8
						c11.4,11,21.9,22.7,31.6,35.2c2.3,2.9,4.5,5.9,6.6,8.9c11.9,16.4,22.2,33.9,30.8,52.2c0.4,0.9,0.8,1.8,1.3,2.7
						c0.9,1.9,1.7,3.8,2.6,5.7C616.3,204.9,616.4,205.3,616.6,205.6"/>
					<path id="Tracé_249" class="st4" d="M18.8,199.5c-0.9,2-1.8,4-2.7,6.1h0C16.9,203.6,17.8,201.6,18.8,199.5"/>
					<path id="Tracé_250" class="st5" d="M268.5,205.6H16.1c0.9-2,1.8-4,2.7-6.1c0.5-1,0.9-2,1.4-3c0.3-0.6,0.5-1.2,0.8-1.8
						c0.5-1,0.9-2,1.4-2.9c0.2-0.4,0.4-0.9,0.6-1.3c0.6-1.2,1.2-2.5,1.8-3.7c1.5-2.9,3-5.7,4.5-8.6c17-31,39-59,64.9-83
						c2.4-2.2,4.7-4.3,7.1-6.4c1.2-1,2.4-2.1,3.6-3.1s2.5-2.1,3.7-3.1c2.3-1.9,4.7-3.8,7-5.6c2.9-2.3,5.9-4.5,8.9-6.7
						c3-2.2,6-4.3,9.1-6.3c14.1-9.5,28.8-17.9,44.2-25c1.5-0.7,2.9-1.4,4.4-2c4.4,14.9,13.4,28.1,25.7,37.7
						c11.1,8.5,24.3,13.6,36,21.1c11.7,7.5,22.5,18.7,24,32.5c1.5,13.9-10.5,29.2-24.2,26.6c12.8,8.3,22.9,21.5,25,36.7
						C269.7,196.3,269.5,201,268.5,205.6"/>
					<path id="Tracé_251" class="st5" d="M501.6,65.9c-8.1,11.8-19,21.3-32.5,25.7c-20.5,6.8-42.8,1.1-63.4-5.4
						c-7.6-2.4-15.8-5.4-19.6-12.4c-5.9-10.8,1.9-25.6-4.7-36c-5-7.8-16.5-10-20.1-18.5c-1-2.5-1.4-5.3-1.1-8
						C411,18.1,459.5,36.9,501.6,65.9"/>
					<path id="Tracé_252" class="st5" d="M220.2,54c-0.4,2.8,0.8,5.6,2.3,8c2.8,4.1,6.9,7.1,11.1,9.7c2.3,1.6,4.9,2.8,7.6,3.5
						c6,1,11.9-2.1,14.5-7.6c2.4-5.5,1.2-12-3-16.3c-1.6-1.6-3.4-2.9-5.4-3.9C240.3,43.7,221.8,42.8,220.2,54"/>
					<path id="Tracé_253" class="st5" d="M260.3,96.1c1.9,1.9,4.3,3.3,6.9,4c2.1,0.7,4.2,1.3,6.4,1.7c1.7,0.5,3.5,0.5,5.3,0.2
						c1.7-0.5,3.2-1.5,4.3-2.9c2.7-2.8,4.1-6.6,4-10.5c-0.2-3.9-2.4-7.5-5.8-9.4c-1.4-0.7-2.8-1.1-4.2-1.5c-5.2-1.4-12.3-2-16.5,2.3
						C257.1,83.9,256.8,92.1,260.3,96.1"/>
					<path id="Tracé_254" class="st5" d="M616.6,205.6h-36.5c8-3.8,16.6-6.5,25.3-8.2c2.3-0.4,4.6-0.8,6.9-1.3
						c0.4,0.9,0.8,1.8,1.3,2.7c0.9,1.9,1.7,3.8,2.6,5.7C616.3,204.9,616.4,205.2,616.6,205.6"/>
					<path id="Tracé_255" class="st5" d="M593.8,162.3c-1.7,3.4-3.6,6.6-5.7,9.7c-1.5,2.2-3.6,4.5-6.2,4.2
						c-1.4-0.3-2.7-0.9-3.8-1.9c-13.4-10.4-24.8-23.1-33.6-37.5c-2.5-4-4.8-8.4-4.9-13.1c0-3.8,1.4-7.5,2.9-11.1
						c1.3-3.2,2.6-6.5,3.9-9.7C564.4,120.8,580.4,140.8,593.8,162.3"/>
				</g>
			</g>
		</g>
		<g id="Groupe_79">
			<g>
				<defs>
					<rect id="SVGID_00000147934036142645950950000014979089583155796122_" width="1064.3" height="708.6"/>
				</defs>
				<clipPath id="SVGID_00000149348946691573232820000002240331451887296655_">
					<use xlink:href="#SVGID_00000147934036142645950950000014979089583155796122_"  style="overflow:visible;"/>
				</clipPath>
				<g id="Groupe_78" style="clip-path:url(#SVGID_00000149348946691573232820000002240331451887296655_);">
					<path id="Tracé_256" class="st7" d="M885.2,299.9c-4.9-1.6-9.8-3.3-14.5-5.2c-2.5-1-4.9-2.1-7.3-3.3c-2.1-1.1-4.1-2.4-6.2-3.7
						c-2-1.2-4.1-2.6-5.4-4.5c-1.3-2-1.6-4.6-0.8-6.8c0.9-2.4,2.4-4.4,4.6-5.9c2.4-1.6,5.2-2.5,8-2.7c3-0.2,6-0.1,9,0.3
						c3,0.4,5.9,0.8,8.9,1.5c11.7,2.5,22.8,7.2,32.7,13.8c2.5,1.5,4.7,3.4,6.5,5.6c1.8,2.2,2.5,5,2.1,7.8c-0.7,2.5-2.5,4.5-4.8,5.5
						c-2.7,1.3-5.8,1.4-8.8,1.3c-3.2-0.2-6.5-0.5-9.7-0.9c-3.2-0.4-6.4-0.9-9.6-1.7c-1.5-0.4-3.1-0.8-4.6-1.2
						c-0.7-0.2-1,0.9-0.3,1.1c6.5,1.9,13.2,3.1,19.9,3.5c5.8,0.5,12.8,1.2,17.1-3.7c1.8-2.2,2.5-5.1,1.8-7.8
						c-0.8-2.8-2.5-5.4-4.7-7.2c-2.3-1.9-4.8-3.7-7.5-5.2c-2.6-1.6-5.4-3.1-8.1-4.4c-5.6-2.7-11.3-4.8-17.3-6.4
						c-3-0.8-6-1.4-9.1-1.9c-3.1-0.5-6.2-0.9-9.3-1c-3.1-0.2-6.2,0.2-9.2,1.2c-2.6,0.9-4.9,2.6-6.6,4.7c-1.6,2-2.5,4.6-2.4,7.2
						c0.3,2.5,1.5,4.7,3.4,6.2c2,1.6,4.1,3,6.2,4.2c2.2,1.3,4.5,2.5,6.8,3.6c5.1,2.3,10.3,4.2,15.6,5.9c1.1,0.3,2.2,0.7,3.3,1
						c0.2,0,0.4-0.1,0.5-0.3C885.5,300.1,885.4,300,885.2,299.9"/>
					<path id="Tracé_257" class="st7" d="M902.2,283.1c-1.6-5.1-3.5-10.2-5.6-15.1c-1.1-2.5-2.3-5-3.6-7.4c-1.2-2.2-2.6-4.3-4-6.3
						c-1.3-2-2.9-4.1-5.1-5.2c-2.3-1.1-5-1.2-7.3-0.2c-2.4,1-4.5,2.7-6,4.9c-1.6,2.5-2.5,5.4-2.7,8.4c-0.2,3.2-0.1,6.3,0.5,9.5
						c0.4,3,1,6.1,1.7,9.1c1.4,6,3.4,11.8,6,17.4c2.5,5.6,5.6,10.9,9.1,15.9c1.6,2.5,3.7,4.7,6.2,6.4c2.4,1.7,5.5,2.2,8.3,1.6
						c2.6-0.8,4.6-2.7,5.7-5.1c1.2-2.9,1.7-6,1.4-9.1c-0.2-3.4-0.6-6.7-1.1-10c-0.5-3.3-1.1-6.6-1.9-9.9c-0.4-1.6-0.9-3.1-1.4-4.7
						c-0.2-0.7-1.3-0.4-1.1,0.3c2,6.2,3.2,12.6,3.9,19.1c0.6,5.5,1.7,12.5-2.8,16.7c-2,1.8-4.8,2.4-7.3,1.7
						c-2.7-0.9-5.2-2.6-6.9-4.8c-1.9-2.3-3.5-4.7-5.1-7.2c-1.6-2.5-3-5.1-4.4-7.7c-2.7-5.3-4.8-10.8-6.5-16.5
						c-0.8-2.9-1.5-5.8-2.1-8.7c-0.6-2.9-1-5.9-1.2-8.9c-0.3-3,0-6.1,0.8-9c0.8-2.5,2.2-4.8,4.3-6.5c1.9-1.6,4.3-2.5,6.8-2.3
						c2.3,0.3,4.4,1.5,5.8,3.4c0.8,1,1.5,1.9,2.1,3c0.7,1,1.3,2,2,3c1.3,2.1,2.5,4.3,3.6,6.6c2.3,4.9,4.2,9.9,6.1,15
						c0.4,1.1,0.8,2.1,1.2,3.2C901.6,283.7,902.3,283.6,902.2,283.1"/>
					<path id="Tracé_258" class="st7" d="M895.8,298.1c4.3-3.9,8.4-8.1,12.3-12.5c1.9-2.2,3.7-4.4,5.4-6.8c0.8-1.2,1.5-2.4,2.3-3.6
						c0.9-1.3,1.7-2.7,2.4-4.2c0.6-1.4,1-2.9,1-4.4c-0.1-1.4-0.5-2.8-1.2-4.1c-1.4-2.2-3.5-3.9-6-4.8c-6-2.3-12.4,0.2-17.6,3.3
						c-2.7,1.6-5.3,3.3-7.9,5.1c-2.5,1.7-4.9,3.5-7.2,5.4c-4.6,3.7-8.7,7.9-12.4,12.5c-1.9,2.4-3.6,4.9-5.2,7.5
						c-1.4,2.3-2.7,4.6-3.9,7c-0.6,1.2-1.1,2.4-1.4,3.6c-0.3,1.2-0.4,2.4-0.3,3.6c0.2,2.6,0.9,5.5,2.9,7.4c1.9,1.8,4.8,2.1,7.3,2
						c1.4,0,2.7-0.2,4-0.6c1.6-0.4,3.2-1.1,4.7-1.9c3-1.6,6-3.4,8.9-5.3c2.9-1.9,5.7-3.9,8.4-6c1.3-1.1,2.6-2.1,3.8-3.3
						c0.5-0.5-0.3-1.3-0.8-0.8c-4.9,4.5-10.3,8.4-16.1,11.7c-2.8,1.7-5.7,3.5-8.9,4.4c-2.5,0.7-5.2,0.8-7.7,0.3
						c-1.1-0.2-2.2-0.8-3-1.5c-0.8-0.9-1.4-2-1.8-3.2c-0.8-2.3-0.8-4.8-0.1-7.2c0.9-2.5,2.1-4.8,3.5-7c1.4-2.4,2.8-4.7,4.4-7
						c3.3-4.7,7.1-8.9,11.4-12.7c4.3-3.8,9-7.3,13.8-10.4c5.1-3.3,10.8-7.1,17.1-6.7c4.9,0.3,10.6,3.9,10.2,9.4
						c-0.2,3-2.2,5.7-3.7,8.2c-1.4,2.3-2.9,4.5-4.6,6.6c-3.7,4.5-7.7,8.8-11.8,12.8c-0.9,0.9-1.8,1.7-2.6,2.6
						C894.9,297.9,895.4,298.4,895.8,298.1"/>
					<path id="Tracé_259" class="st7" d="M886.9,279.1c-2.7,0.2-4.9,2-5.7,4.6c-0.7,2.5,0.1,5.2,2.2,6.9c1.9,1.4,4.5,1.6,6.6,0.5
						c2.9-1.6,4.2-5,3-8.1C892,280.6,889.6,279,886.9,279.1"/>
					<path id="Tracé_260" class="st7" d="M905.3,311.4c-1.7,0.1-3.2,1.3-3.7,3c-0.5,1.6,0.1,3.4,1.4,4.5c1.3,0.9,2.9,1,4.3,0.3
						c1.9-1,2.7-3.3,2-5.3C908.6,312.4,907,311.3,905.3,311.4"/>
					<path id="Tracé_261" class="st7" d="M871.3,249.4c-1.7,0.1-3.2,1.3-3.7,3c-0.5,1.6,0.1,3.4,1.4,4.5c1.3,0.9,2.9,1,4.3,0.3
						c1.9-1,2.7-3.3,2-5.3C874.6,250.4,873.1,249.4,871.3,249.4"/>
					<path id="Tracé_262" class="st8" d="M935.5,102.8l19.4,33.8l-46.3,4"/>
					<path id="Tracé_263" class="st4" d="M935.1,111.4c-4.7-0.2-8.4-4.2-8.1-8.9c0.2-4.7,4.2-8.4,8.9-8.1c4.7,0.2,8.4,4.2,8.1,8.9
						C943.8,108,939.8,111.6,935.1,111.4C935.1,111.4,935.1,111.4,935.1,111.4"/>
					<path id="Tracé_264" class="st9" d="M954.6,145.2c-4.7-0.2-8.4-4.2-8.1-8.9s4.2-8.4,8.9-8.1c4.7,0.2,8.4,4.2,8.1,8.9
						C963.3,141.8,959.3,145.5,954.6,145.2C954.6,145.2,954.6,145.2,954.6,145.2"/>
					<path id="Tracé_265" class="st5" d="M909.4,149.2c-4.7-0.2-8.4-4.2-8.1-8.9c0.2-4.7,4.2-8.4,8.9-8.1c4.7,0.2,8.4,4.2,8.1,8.9
						C918.1,145.8,914.1,149.5,909.4,149.2C909.4,149.2,909.4,149.2,909.4,149.2"/>
					<path id="Tracé_266" class="st8" d="M63.2,77.7l-33.3-0.9l17.7-35.5"/>
					<path id="Tracé_267" class="st4" d="M57.2,73.7c2.3-3.3,6.8-4.2,10.1-2c3.3,2.3,4.2,6.8,2,10.1c-2.3,3.3-6.8,4.2-10.1,2
						C55.8,81.5,54.9,77,57.2,73.7C57.2,73.7,57.2,73.7,57.2,73.7"/>
					<path id="Tracé_268" class="st9" d="M23.8,72.8c2.3-3.3,6.8-4.2,10.1-2s4.2,6.8,2,10.1c-2.3,3.3-6.8,4.2-10.1,2
						C22.4,80.7,21.6,76.1,23.8,72.8C23.8,72.8,23.8,72.8,23.8,72.8"/>
					<path id="Tracé_269" class="st5" d="M41,38c2.3-3.3,6.8-4.2,10.1-2c3.3,2.3,4.2,6.8,2,10.1c-2.3,3.3-6.8,4.2-10.1,2
						C39.6,45.9,38.7,41.4,41,38C41,38,41,38,41,38"/>
					<path id="Tracé_270" class="st10" d="M53.4,153.3l104.1-14.3l-57.1,88.5l-4.1-48.2L53.4,153.3z"/>
					<path id="Tracé_271" class="st2" d="M85.9,173.8c-0.1-0.2,0-0.5,0.3-0.6l71-34.7c0.2-0.1,0.5,0,0.7,0.2
						c0.1,0.2,0.1,0.5-0.1,0.7l-60.6,53c-0.2,0.2-0.5,0.2-0.7,0c-0.2-0.2-0.2-0.5,0-0.7l57.7-50.5l-67.5,33
						C86.4,174.2,86.1,174.1,85.9,173.8C86,173.9,86,173.9,85.9,173.8C86,173.8,85.9,173.8,85.9,173.8"/>
					<path id="Tracé_272" class="st2" d="M95.8,179.3c-0.1-0.2,0-0.5,0.2-0.6l61.2-40.2c0.2-0.2,0.6-0.1,0.7,0.2s0.1,0.6-0.1,0.7
						l-61.2,40.2c-0.2,0.2-0.6,0.1-0.7-0.1C95.8,179.4,95.8,179.4,95.8,179.3"/>
					<path id="Tracé_273" class="st9" d="M87.1,179.7c-0.1-0.3,0.1-0.6,0.3-0.6c0.1,0,0.2,0,0.2,0c1.4,0.2,2.8,0.4,4.1,0.7
						c0.3,0.1,0.5,0.3,0.4,0.6c-0.1,0.3-0.3,0.5-0.6,0.4c0,0,0,0,0,0c-1.4-0.3-2.7-0.5-4.1-0.7C87.3,180.1,87.2,179.9,87.1,179.7"/>
					<path id="Tracé_274" class="st9" d="M16,276.1c-0.2-0.8-0.5-1.6-0.7-2.4c-0.2-0.6-0.3-1.2-0.4-1.9c-0.1-0.3,0.1-0.6,0.4-0.6
						c0,0,0,0,0,0c0.3-0.1,0.5,0.1,0.6,0.3c0,0,0,0.1,0,0.1c0.1,0.6,0.3,1.2,0.4,1.8c0.5,2,1.1,4,1.9,5.9c0.1,0.2,0,0.5-0.2,0.6
						c0,0,0,0-0.1,0c-0.3,0.1-0.6,0-0.7-0.3c0,0,0,0,0,0C16.8,278.6,16.4,277.3,16,276.1 M13.7,263.8c0,0,0-0.1,0-0.1
						c-0.2-2.7-0.2-5.5,0-8.3c0-0.3,0.3-0.5,0.6-0.5c0.3,0,0.5,0.3,0.5,0.6c-0.2,2.7-0.2,5.4,0,8.1c0,0.3-0.2,0.5-0.5,0.6
						C14,264.2,13.8,264.1,13.7,263.8 M20.9,287.1c-0.1-0.3,0.1-0.6,0.3-0.7c0.2-0.1,0.5,0,0.6,0.2c1.4,2.3,3.1,4.4,5.1,6.2
						c0.2,0.2,0.2,0.5,0,0.7c-0.2,0.2-0.5,0.2-0.7,0c-2-1.9-3.8-4.1-5.2-6.4C21,287.2,21,287.1,20.9,287.1 M14.8,247.5
						c0-0.1,0-0.2,0-0.3c0.6-2.7,1.4-5.3,2.3-7.9c0.1-0.3,0.4-0.4,0.7-0.3s0.4,0.4,0.3,0.7l0,0c-1,2.5-1.7,5.1-2.3,7.8
						c-0.1,0.3-0.3,0.5-0.6,0.4C15,247.9,14.9,247.7,14.8,247.5 M32.8,298.1c-0.1-0.3,0.1-0.6,0.3-0.7c0.1,0,0.3,0,0.4,0
						c2.4,1.2,5,2,7.6,2.5c0.3,0.1,0.5,0.3,0.4,0.6c-0.1,0.3-0.3,0.5-0.6,0.4l0,0c-2.7-0.5-5.4-1.4-7.9-2.6
						C32.9,298.3,32.8,298.2,32.8,298.1 M20.7,232.3c0-0.1,0-0.3,0-0.4c0.6-1,1.2-2,1.9-3c0.9-1.3,1.8-2.5,2.9-3.7
						c0.2-0.2,0.5-0.2,0.7,0c0.2,0.2,0.2,0.5,0.1,0.7c-1,1.2-1.9,2.4-2.8,3.6c-0.7,1-1.3,1.9-1.9,3c-0.1,0.2-0.5,0.3-0.7,0.2
						c0,0,0,0,0,0C20.8,232.5,20.7,232.4,20.7,232.3 M49.2,302l0-0.5l0.1-0.5l0.2,0c1.3,0.1,2.6,0.1,4,0.2c1.3,0,2.6,0.1,3.9,0.2
						c0.3,0,0.5,0.3,0.5,0.5c0,0.3-0.3,0.5-0.5,0.5l0,0c-1.3-0.1-2.6-0.1-3.9-0.2c-1.3,0-2.7-0.1-4-0.2L49.2,302z M49.2,301.5
						L49.2,301.5L49.2,301.5z M31.2,219.9c-0.1-0.2,0-0.4,0.2-0.6c2.1-1.8,4.4-3.3,6.8-4.7c0.3-0.1,0.6-0.1,0.7,0.2c0,0,0,0,0,0
						c0.1,0.2,0.1,0.6-0.2,0.7c0,0,0,0,0,0c-2.3,1.3-4.6,2.9-6.7,4.6c-0.2,0.2-0.5,0.2-0.7-0.1c0,0,0,0,0,0
						C31.2,220,31.2,220,31.2,219.9 M64.9,303.1c-0.1-0.3,0.1-0.6,0.4-0.6c0.1,0,0.2,0,0.3,0c0.8,0.2,1.6,0.4,2.3,0.7
						c1.9,0.7,3.7,1.6,5.2,2.9c0.2,0.2,0.3,0.5,0.1,0.7s-0.5,0.3-0.7,0.1l0,0c-1.5-1.2-3.2-2.1-4.9-2.7c-0.7-0.2-1.4-0.5-2.2-0.7
						C65.1,303.4,65,303.2,64.9,303.1 M44.5,214.8L44.5,214.8c-0.7-2.7-1-5.5-0.8-8.3c0-0.3,0.3-0.5,0.5-0.5c0.3,0,0.5,0.3,0.5,0.5
						c0,0,0,0,0,0c-0.2,2.7,0,5.4,0.7,7.9c0.1,0.3-0.1,0.6-0.4,0.6C44.8,215.1,44.6,215,44.5,214.8 M48,222.1
						c-0.1-0.3,0.1-0.6,0.3-0.7c0.2-0.1,0.4,0,0.6,0.2c0.2,0.3,0.5,0.6,0.7,0.9c1.5,1.7,3.2,3.2,5.2,4.3c0.3,0.1,0.3,0.5,0.2,0.7
						c-0.1,0.3-0.5,0.3-0.7,0.2c-2.1-1.1-4-2.7-5.5-4.5c-0.3-0.3-0.5-0.7-0.8-1C48,222.2,48,222.2,48,222.1 M45.4,211.9
						c-0.1-0.3,0.1-0.5,0.3-0.6c0.6-0.2,1.3-0.4,1.9-0.6c2-0.6,4-1.1,6.1-1.4c0.3,0,0.5,0.2,0.6,0.4s-0.2,0.5-0.4,0.6l0,0
						c-2,0.3-4,0.8-6,1.4c-0.6,0.2-1.3,0.4-1.9,0.6C45.8,212.3,45.5,212.1,45.4,211.9L45.4,211.9 M45.6,198.7c0-0.1,0-0.2,0-0.4
						l0.2-0.5c1.1-2.4,2.4-4.6,4.1-6.6c0.2-0.2,0.5-0.3,0.7-0.1s0.3,0.5,0.1,0.7c0,0,0,0,0,0c-1.6,1.9-2.9,4.1-4,6.4l-0.2,0.5
						c-0.1,0.3-0.4,0.4-0.7,0.3C45.7,199,45.6,198.9,45.6,198.7 M61.8,229.9c0-0.1,0-0.1,0-0.2c0-0.3,0.3-0.5,0.6-0.5
						c2.4,0.3,4.7,0.1,7-0.6c0.3-0.1,0.6-0.2,0.8-0.3c0.3-0.1,0.6,0,0.7,0.3l0,0c0.1,0.3-0.1,0.5-0.3,0.6c-0.3,0.1-0.6,0.2-0.9,0.3
						c-2.4,0.7-4.9,0.9-7.4,0.7C62.1,230.3,61.9,230.1,61.8,229.9 M61.5,209.5c0-0.1,0-0.1,0-0.2c0-0.3,0.3-0.5,0.6-0.5l0.7,0.1
						c2.5,0.1,5,0.7,7.4,1.6c0.3,0.1,0.4,0.4,0.3,0.7c-0.1,0.3-0.4,0.4-0.7,0.3c-2.3-0.9-4.7-1.4-7.1-1.5l-0.7,0
						C61.7,209.8,61.5,209.7,61.5,209.5 M55.8,186.2c-0.1-0.2,0-0.4,0.2-0.6c2.3-1.6,4.7-3,7.2-4c0.3-0.1,0.6,0,0.7,0.3
						c0.1,0.3,0,0.6-0.3,0.7c-2.5,1-4.8,2.3-7,3.9c-0.2,0.2-0.6,0.1-0.7-0.1c0,0,0,0,0,0C55.8,186.3,55.8,186.2,55.8,186.2
						 M76.2,224.1c0-0.1,0-0.3,0-0.4c1-2.4,0.8-5.2-0.6-7.4c-0.1-0.3,0-0.6,0.2-0.7c0.2-0.1,0.5,0,0.7,0.2c1.5,2.5,1.7,5.6,0.6,8.3
						c-0.1,0.3-0.4,0.4-0.7,0.3c0,0,0,0,0,0C76.3,224.3,76.2,224.2,76.2,224.1 M70.8,179.9C70.8,179.9,70.8,179.9,70.8,179.9
						c-0.1-0.3,0.1-0.6,0.4-0.7c2.7-0.5,5.5-0.7,8.2-0.8c0.3,0,0.5,0.2,0.5,0.5c0,0.3-0.2,0.5-0.5,0.5c0,0,0,0,0,0
						c-2.7,0-5.4,0.3-8.1,0.7C71.1,180.3,70.9,180.2,70.8,179.9"/>
					<path id="Tracé_275" class="st9" d="M77.8,317.3c0-0.1,0-0.1,0-0.2c0.1-1.3-0.1-2.6-0.5-3.9c-0.1-0.3,0.1-0.6,0.3-0.7
						c0.3-0.1,0.5,0.1,0.6,0.3c0.5,1.4,0.7,2.9,0.6,4.3c0,0.3-0.3,0.5-0.6,0.5C78,317.6,77.8,317.5,77.8,317.3"/>
					<path id="Tracé_276" class="st11" d="M98.1,360.6H0c0,0,13.2-26.4,29.3-18.6c18.4-22.1,39.6-10.9,40.8,4.4
						C84.4,335.3,98.1,360.6,98.1,360.6"/>
					<path id="Tracé_277" class="st11" d="M1064.3,407.3h-91.1c0,0,0-20.1,26.3-10.6c4.4-35.1,47.6-30.9,38.8-2.5
						C1051.7,383.9,1064.3,407.3,1064.3,407.3"/>
					<path id="Tracé_278" class="st12" d="M545.1,42.9H434.6c0,0,11.4-28.5,43.4-16.4c10.9-26.7,39.4-17.1,37.7,1.1
						C538.2,13.1,545.2,42.9,545.1,42.9"/>
					<g id="Groupe_77" transform="translate(291.391 511.483)" class="st13">
						<g id="Groupe_76">
							<g>
								<defs>
									<rect id="SVGID_00000031888808716517592540000015465412799042798472_" x="0" y="0" width="377.1" height="51.1"/>
								</defs>
								<clipPath id="SVGID_00000013156610337466386270000001415560695194034566_">
									<use xlink:href="#SVGID_00000031888808716517592540000015465412799042798472_"  style="overflow:visible;"/>
								</clipPath>
								<g id="Groupe_75" style="clip-path:url(#SVGID_00000013156610337466386270000001415560695194034566_);">
									<path id="Tracé_279" class="st15" d="M377.1,25.5c0,14.1-84.4,25.5-188.6,25.5S0,39.6,0,25.5S84.4,0,188.6,0
										S377.1,11.4,377.1,25.5"/>
								</g>
							</g>
						</g>
					</g>
					<path id="Tracé_280" class="st16" d="M724.3,534.9c-7.7,2.5-477-3.2-477-3.2l82.1-44.6l312.1,5.8
						C641.5,493,733.7,531.9,724.3,534.9"/>
					<path id="Tracé_281" class="st5" d="M713,523l-15.8-13.3c0,0-96.7-13.4-126.9-16.6c-84.5-8.7-86.3,18.4-86.3,18.4l220.1,14.3
						L713,523z"/>
					<path id="Tracé_282" class="st5" d="M247.6,527.9l3.2-3.5c0,0,112.6-27,142.8-30.7c84.3-10.5,86.6,16.6,86.6,16.6l-219.8,19
						L247.6,527.9z"/>
					<path id="Tracé_283" class="st7" d="M270,505.1l25.4-15.4c0,0,61.1-20.4,88.8-30.9c27.5-10.4,58-11.5,72.5-8.6
						s24.9,17.8,24.9,17.8l0.1,27.5L270,505.1z"/>
					<path id="Tracé_284" class="st7" d="M691,501l-28.1-20.4c-27.7-5.1-54.8-12.6-81.1-22.4c-27.8-10.3-57.5-12.8-71.8-9.5
						s-31.1,19.1-31.1,19.1l0.4,28.2L691,501z"/>
					<path id="Tracé_285" class="st10" d="M507.8,440.7c43.7-23,74-16.1,74-16.1c8.8,1.6,17.4,4.1,25.8,7.5
						c10,4.2,17.8,9.2,30.5,10c2.7,0.2,5.4,0.2,8.1,0l28,25.8c-7.2,1.6-14.5,2.4-21.8,2.3c-8-0.2-15.9-1.3-23.5-3.4
						c-30.3-7.9-32.3-12.5-49-15.4c-21.9-3.8-51.4-2.8-83.1,17c-7.5,4.7-14,10.9-17.6,19.2c1.2-11.3,3.1-26.9,3.1-26.9
						S497,446.3,507.8,440.7"/>
					<path id="Tracé_286" class="st17" d="M462.5,510.7l20-0.9l-1.7-12.9c0,0-5.2-18.3-19-24.5c-10.4-4.7-38.5-13.6-111.9,10.7
						c-66.4,22-79.7,21.4-79.7,21.4l-21.7,21.8c0,0,78.6-7.6,111.2-14.3c32.4-6.7,47.7-16.1,78-13.1c19.9,2,24.7,11.2,24.7,11.2"/>
					<path id="Tracé_287" class="st17" d="M472.5,509l1-9.4c0,0,5.2-16.6,18.8-23.2c10.3-4.9,37.4-20.3,111.3,2.5
						c66.8,20.6,85.6,21.1,85.6,21.1l17.1,21.9c0,0-81.9-6.1-114.6-12.2c-32.5-6-59.1-10.5-79-7.9s-19.2,8.7-19.2,8.7"/>
					<path id="Tracé_288" class="st18" d="M713.4,522.7l-212-13.3c-1-0.1-3.3-0.2-5-0.2c-0.1,0-0.1,0-0.2-0.1
						c-1-0.1-1.9,0.5-2.1,1.5c0,0,0,0.1,0,0.1c-0.8,7.9-7.4,14.5-15.4,14.6l-0.6,0c-8.1,0.1-14.8-6.4-15.7-14.3c-0.1-1-1-1.7-2-1.6
						c0,0,0,0-0.1,0c0,0,0,0-0.1,0c0,0,0,0,0,0l-211.3,17.8c-1,0.1-1.8,1.1-1.6,2.1c0.1,1,1,1.7,2,1.7l210.5-15.3
						c2.7,7.9,10.1,13.1,18.4,13l0.6,0c8.4-0.1,15.7-5.6,18.2-13.6l216.3,11.2c1,0.1,2-0.6,2.1-1.7c0.1-1-0.6-2-1.7-2.1
						C713.5,522.7,713.5,522.7,713.4,522.7"/>
					<path id="Tracé_289" class="st19" d="M478.6,501.7c-3.5-17.5-21.9-25.1-36.3-25.7s-28.3,4.6-42,9.2
						c-42.2,14.1-92.7,24.3-137.1,27.1"/>
					<path id="Tracé_290" class="st19" d="M255,519.8c10.1,2.4,84.6-9.9,111-17.8c24.6-7.3,51-14.9,76.7-14
						c7.3,0.3,14.9,1.5,20.7,5.9c5.4,4.1,8.6,10.5,8.7,17.3"/>
					<path id="Tracé_291" class="st19" d="M479,501.7c3.2-7.5,14.3-17.2,21.8-20.4c7.5-3.2,15.7-4.2,23.8-4.4
						c29.4-1,57.5,10.1,86.4,15.4c32.7,6,69.5,13,82.7,13.5"/>
					<path id="Tracé_292" class="st19" d="M630.2,509.3c14.5,2.4,29.2,3.7,43.9,3.9"/>
					<path id="Tracé_293" class="st19" d="M481.3,512.2c3.1-7.1,14.1-15.1,20.7-19c14.8-8.9,30.4-8.3,48.3-5.2
						c12.7,2.2,24.9,7.1,37.2,11"/>
					<path id="Tracé_294" class="st19" d="M266,508.6c40.5-8.1,68.3-14.6,104.8-24.7c23.8-6.6,46.8-15.3,70.1-14.2
						c14.1,0.7,32.7,3.1,38.2,28"/>
					<path id="Tracé_295" class="st19" d="M478.6,500.3c1.9-9.4,10-16.4,18.7-20.7c17.7-8.7,38.5-8.4,58.1-6.2
						c46.9,5.3,86.9,20.3,133.7,26.5"/>
					<path id="Tracé_296" class="st4" d="M478.6,525.1l-0.5,0c-8.6,0.1-15.6-6.8-15.7-15.4c0,0,0,0,0,0c5.3-1.6,10.7-2.4,16.2-2.3
						c5.2,0.2,10.3,0.8,15.4,2C494,518,487.2,525,478.6,525.1"/>
					<path id="Tracé_297" class="st7" d="M461.1,455c-3.8-4.6-8.3-8.7-13.3-12c-36.4-25.7-71.1-20.2-71.1-20.2
						c-8.8,1.6-17.5,4-25.8,7.3c-10.1,4.1-17.9,9.1-30.5,9.9c-2.7,0.2-5.4,0.1-8.1-0.1l-28.2,25.6c7.1,1.7,14.5,2.4,21.8,2.4
						c8-0.1,15.9-1.2,23.5-3.3c30.4-7.7,32.3-12.3,49.1-15.1c16.1-2.6,32.6-1.3,48.2,3.8c16.2,5.4,27.8,13.7,35.6,19.3
						c5.9,4.2,11.4,8.7,16.7,13.6c-3.7-7.9-7.2-14.2-9.8-18.8C464.3,458.9,461.8,455.9,461.1,455"/>
					<path id="Tracé_298" class="st10" d="M470.9,434.9c-5.9-13.9-15-25.1-30.6-34.6c-26.2-16.1-36.6-11.9-61.3-27
						c-12.2-7.5-19.1-17.4-24.5-22.3c-5.1,10.5-36.9,66.1-44,79c22.6,7.1,43.3,7.2,55.9,9c33,4.7,51.5,0.1,73.1,11.8
						c8.9,4.8,17.2,10.6,24.8,17.3c6.4,6.7,13.4,16.7,14.8,24.9c-0.2-6.3-0.4-21-2-31.5C475.6,451.7,474.2,442.6,470.9,434.9"/>
					<path id="Tracé_299" class="st20" d="M504.7,463.5c0-0.1,0-0.1-0.1-0.2c-2.4-6.3-9.1-14.8-9.1-14.8l-7.5,5.9
						c0,0,5.4,8.4,7.5,14c0.1,0.2,0.1,0.3,0.2,0.5c0.6-0.4,1.1-0.8,1.6-1.2C499.7,466.1,502.2,464.7,504.7,463.5"/>
					<path id="Tracé_300" class="st9" d="M504.7,463.5c-2.6,1.3-5,2.7-7.4,4.2c-0.5,0.3-1,0.7-1.6,1.2c1.9,6.5,3,31.5,3.6,35.9
						c0.6,4.5,3.7,9,3.7,9s0.4-3.7,0.7-5.8c0.3-1.4,0.7-2.7,1.3-3.9c0.8,1.4,1.7,2.8,2.7,4.1c1.4,1.4,2.9,2.7,4.5,3.9
						c-1.7-4.2-2.9-8.6-3.6-13.1C507.5,491.7,507.3,470.8,504.7,463.5"/>
					<line id="Ligne_5" class="st21" x1="523.2" y1="510.2" x2="668.8" y2="520.2"/>
					<line id="Ligne_6" class="st21" x1="434.9" y1="511.7" x2="327" y2="520.8"/>
				</g>
			</g>
		</g>
		<g id="Groupe_81" transform="translate(11.554 520.652)">
			<g>
				<defs>
					<rect id="SVGID_00000095315227077743540320000012197716105928412332_" x="0" y="0" width="346.3" height="147.3"/>
				</defs>
				<clipPath id="SVGID_00000178906601782034020530000012933996369140684164_">
					<use xlink:href="#SVGID_00000095315227077743540320000012197716105928412332_"  style="overflow:visible;"/>
				</clipPath>
				<g id="Groupe_80" style="clip-path:url(#SVGID_00000178906601782034020530000012933996369140684164_);">
					<path id="Tracé_301" class="st2" d="M104.7,105.3c1.5,19.6-6,38.8-20.3,52.3c0,0-22,4.6-39.5-2.8c-6.4-2.5-11.8-6.9-15.6-12.6
						c8.6-10,18.3-12.5,18.9-12.6c-0.8,0.1-19.8,1.4-32.6-25.9c17.5-5.5,28.3-1.8,28.3-1.8c-10.4-11-13.6-27-8.3-41.2
						C63.8,69.4,63,93.2,63,93.8c0.3-0.5,8.8-17.5,20.5-22.5c11.1,20.5-1.5,44-1.8,44.7C82.2,115.6,93.5,104.8,104.7,105.3"/>
					<path id="Tracé_302" class="st23" d="M45.9,82.6c0,0,26.6,56.3,44.9,84.9"/>
					<path id="Tracé_303" class="st23" d="M36.8,111.4c0,0,9.9,8,28.3,10.6"/>
					<path id="Tracé_304" class="st23" d="M62.7,116c0,0,7.6-7.4,11.7-23.5"/>
					<path id="Tracé_305" class="st23" d="M43.2,143.5c0,0,17,8.3,37,6.4"/>
					<path id="Tracé_306" class="st23" d="M76.7,142.7c6.6-6.8,12.1-14.7,16.3-23.2"/>
					<path id="Tracé_307" class="st9" d="M106.3,144.2c22.8,7.2,59.5,13.4,70,28.7c0.4,0.5,0.7,1.1,1,1.7c0,0,3.2-24.2,23.8-54.2
						c21.7-31.6,3.5-47.3-11.8-42.2C183,56.8,171.1,60,171.1,60s-1.5-26.2-13.7-26.2c-11-25.5-32.1-25.6-32.1-15.9
						c-7.9-8.3-15.5-12.2-21.2-11.8c-7.8,0.6-12.1,9.2-8.8,25.9c-10.7,4.4-6.2,22.3,0.1,29.1c-9-0.2-6.7,18.5,4,28.6
						c-11.2,2.9-0.2,21.1,6.1,25.5C85.4,115.6,82.8,136.7,106.3,144.2"/>
					<path id="Tracé_308" class="st24" d="M118.6,33.9c0,0,51.1,103.5,61.4,151"/>
					<path id="Tracé_309" class="st24" d="M194.3,89.9c0,0-8.7,32.2-24.9,60.3"/>
					<path id="Tracé_310" class="st24" d="M165.5,141.3c0,0-42.7-7.5-58.5-15"/>
					<path id="Tracé_311" class="st24" d="M159.3,123.9c0,0,12.1-24.4,13.5-50.2"/>
					<path id="Tracé_312" class="st24" d="M153.4,112.2c0,0-23.4,0.1-41.2-11.1"/>
					<path id="Tracé_313" class="st24" d="M155.1,46.5c0,0,4.9,28.4-7.2,50.4"/>
					<path id="Tracé_314" class="st24" d="M141.4,83.5c0,0-23.7-2.1-35.1-11.6"/>
					<path id="Tracé_315" class="st24" d="M132,62.5c0,0-21.2-6.1-29.8-16.5"/>
					<path id="Tracé_316" class="st24" d="M128.4,54.3c0,0,8.5-13,6.6-25.6"/>
					<path id="Tracé_317" class="st2" d="M308.1,142.4c-14.5,18.9-36.8,30.3-60.7,30.9c0,0-23.6-13.6-33.5-34.5
						c-3.7-7.4-5.1-15.8-3.9-24c15.8-2.1,26.7,3.6,27.3,3.9c-0.8-0.6-19-14.7-8.5-49.8c20.3,9.1,27,21.3,27,21.3
						c-0.5-18.4,9.5-35.4,25.8-43.9c18.4,30.6-1.5,51.5-1.9,52.1c0.7-0.3,22-8.7,36.8-3.7c-6.5,27.5-36.9,38.6-37.9,39
						C279.4,133.5,298.4,132.8,308.1,142.4"/>
					<path id="Tracé_318" class="st23" d="M273.2,74.2c0,0-21.5,72.5-28.1,113.1"/>
					<path id="Tracé_319" class="st23" d="M241.7,93c0,0,2.5,15.3,17.1,32.5"/>
					<path id="Tracé_320" class="st23" d="M261.5,118c0,0,12.9-0.5,29.6-11.8"/>
					<path id="Tracé_321" class="st23" d="M221.5,127.1c0,0,8.7,21.3,28.3,35.7"/>
					<path id="Tracé_322" class="st23" d="M252.5,153.6c0,0,17.2-0.9,33.5-7.8"/>
				</g>
			</g>
		</g>
		<g id="Groupe_83" transform="translate(614.198 520.652)">
			<g>
				<defs>
					<rect id="SVGID_00000152969742090432826580000015025488549410667924_" x="0" y="0" width="346.3" height="147.3"/>
				</defs>
				<clipPath id="SVGID_00000111887425610754327900000003158506466712737974_">
					<use xlink:href="#SVGID_00000152969742090432826580000015025488549410667924_"  style="overflow:visible;"/>
				</clipPath>
				<g id="Groupe_82" style="clip-path:url(#SVGID_00000111887425610754327900000003158506466712737974_);">
					<path id="Tracé_323" class="st2" d="M241.6,105.3c-1.5,19.6,6,38.8,20.3,52.3c0,0,22,4.6,39.5-2.8c6.4-2.5,11.8-6.9,15.6-12.6
						c-8.6-10-18.3-12.5-18.9-12.6c0.8,0.1,19.8,1.4,32.6-25.9c-17.5-5.5-28.3-1.8-28.3-1.8c10.4-11,13.6-27,8.3-41.2
						c-28.2,8.7-27.4,32.4-27.4,33c-0.3-0.5-8.8-17.5-20.5-22.5c-11.1,20.5,1.5,44,1.8,44.7C264.1,115.6,252.8,104.8,241.6,105.3"/>
					<path id="Tracé_324" class="st23" d="M300.4,82.6c0,0-26.6,56.3-44.9,84.9"/>
					<path id="Tracé_325" class="st23" d="M309.4,111.4c0,0-9.9,8-28.3,10.6"/>
					<path id="Tracé_326" class="st23" d="M283.5,116c0,0-7.6-7.4-11.7-23.5"/>
					<path id="Tracé_327" class="st23" d="M303.1,143.5c0,0-17,8.3-37,6.4"/>
					<path id="Tracé_328" class="st23" d="M269.5,142.7c-6.6-6.8-12.1-14.7-16.3-23.2"/>
					<path id="Tracé_329" class="st9" d="M239.9,144.2c-22.8,7.2-59.5,13.4-70,28.7c-0.4,0.5-0.7,1.1-1,1.7c0,0-3.2-24.2-23.8-54.2
						c-21.7-31.6-3.5-47.3,11.8-42.2c6.4-21.3,18.3-18.1,18.3-18.1s1.5-26.2,13.7-26.2c11-25.5,32.1-25.6,32.1-15.9
						c7.9-8.3,15.5-12.2,21.2-11.8c7.8,0.6,12.1,9.2,8.8,25.9c10.7,4.4,6.2,22.3-0.1,29.1c9-0.2,6.7,18.5-4,28.6
						c11.2,2.9,0.2,21.1-6.1,25.5C260.9,115.6,263.5,136.7,239.9,144.2"/>
					<path id="Tracé_330" class="st24" d="M227.7,33.9c0,0-51.1,103.5-61.4,151"/>
					<path id="Tracé_331" class="st24" d="M152,89.9c0,0,8.7,32.2,24.9,60.3"/>
					<path id="Tracé_332" class="st24" d="M180.7,141.3c0,0,42.7-7.5,58.5-15"/>
					<path id="Tracé_333" class="st24" d="M187,123.9c0,0-12.1-24.4-13.5-50.2"/>
					<path id="Tracé_334" class="st24" d="M192.9,112.2c0,0,23.4,0.1,41.2-11.1"/>
					<path id="Tracé_335" class="st24" d="M191.2,46.5c0,0-4.9,28.4,7.2,50.4"/>
					<path id="Tracé_336" class="st24" d="M204.9,83.5c0,0,23.7-2.1,35.1-11.6"/>
					<path id="Tracé_337" class="st24" d="M214.3,62.5c0,0,21.2-6.1,29.8-16.5"/>
					<path id="Tracé_338" class="st24" d="M217.8,54.3c0,0-8.5-13-6.6-25.6"/>
					<path id="Tracé_339" class="st2" d="M38.2,142.4c14.5,18.9,36.8,30.3,60.7,30.9c0,0,23.6-13.6,33.5-34.5
						c3.7-7.4,5.1-15.8,3.9-24c-15.8-2.1-26.7,3.6-27.3,3.9c0.8-0.6,19-14.7,8.5-49.8c-20.3,9.1-27,21.3-27,21.3
						c0.5-18.4-9.5-35.4-25.8-43.9c-18.4,30.6,1.5,51.5,1.9,52.1c-0.7-0.3-22-8.7-36.8-3.7c6.5,27.5,36.9,38.6,37.8,39
						C66.9,133.5,47.9,132.8,38.2,142.4"/>
					<path id="Tracé_340" class="st23" d="M73,74.2c0,0,21.5,72.5,28.1,113.1"/>
					<path id="Tracé_341" class="st23" d="M104.5,93c0,0-2.5,15.3-17.1,32.5"/>
					<path id="Tracé_342" class="st23" d="M84.8,118c0,0-12.9-0.5-29.6-11.8"/>
					<path id="Tracé_343" class="st23" d="M124.7,127.1c0,0-8.7,21.3-28.3,35.7"/>
					<path id="Tracé_344" class="st23" d="M93.7,153.6c0,0-17.2-0.9-33.5-7.8"/>
				</g>
			</g>
		</g>
		<g id="Groupe_103">
			<g>
				<defs>
					<rect id="SVGID_00000016045109297621267650000013638281934507849141_" width="1064.3" height="708.6"/>
				</defs>
				<clipPath id="SVGID_00000045597148098702676530000009753678295418676152_">
					<use xlink:href="#SVGID_00000016045109297621267650000013638281934507849141_"  style="overflow:visible;"/>
				</clipPath>
				<g id="Groupe_102" style="clip-path:url(#SVGID_00000045597148098702676530000009753678295418676152_);">
					<path id="Tracé_345" class="st2" d="M777.3,438.7c-5.5,2-9.8,7-12.3,10.7c-1,1.5-2,3-2.8,4.7l-16.6-8.3c0,0,8.9-10.1,4.7-22.2
						c-3.8-11-4.1-22.7,6-27.7c1.1-0.5,2.3-1,3.5-1.3c17.9-5.1,33.4,7.1,36.8,20.2C800,428,786.7,435.3,777.3,438.7"/>
					<path id="Tracé_346" class="st7" d="M749.7,449.6c0.1-0.2,9.8-13.7,14.8-24.5c0.1,0.1,0.3,0.1,0.4,0.2c1.5,0.6,3,1,4.5,1.3
						c-5.9,11.3-13.1,27-13.2,27.2l0.5,0.2c0.1-0.2,7.4-16,13.3-27.3c4.9,0.9,9.6,0.3,11.9-1.5c1.2-0.9,1.8-2.4,1.4-3.9
						c-0.7-1.8-2.3-3-4.2-3.1c-1.5-0.1-5.3,0.1-8.4,6c-0.3,0.6-0.6,1.2-1,1.9c-1.6-0.3-3.1-0.7-4.6-1.3c-0.1,0-0.2-0.1-0.4-0.1
						c1-2.1,1.8-4.4,2.4-6.7c1-4.3-0.7-6.2-1.7-7c-1.7-1.1-4-1.2-5.7-0.1c-2.2,1.4-3.3,3.9-2.8,6.5c0.4,3.1,2.9,5.7,7.1,7.6
						c-5,10.7-14.7,24.2-14.8,24.4L749.7,449.6z M766.6,417.8c-0.6,2.3-1.4,4.5-2.4,6.6c-2.6-1.2-6.2-3.4-6.8-7.1
						c-0.5-2.3,0.5-4.7,2.5-5.9c1.6-1,3.6-1,5.1,0c0.6,0.5,1.1,1.1,1.4,1.9C767,414.8,767,416.4,766.6,417.8 M782.7,421.5
						c0.4,1.3-0.1,2.6-1.2,3.3c-2.1,1.7-6.6,2.2-11.3,1.4c0.3-0.6,0.6-1.1,0.9-1.7c3-5.6,6.5-5.9,7.9-5.7c1.6,0.1,3,1.1,3.6,2.5
						C782.7,421.3,782.7,421.4,782.7,421.5"/>
					<path id="Tracé_347" class="st7" d="M755.7,454l0.2-0.4c0.3-0.6,7.2-15.6,13-26.7c-1.4-0.3-2.7-0.7-4.1-1.2l0,0
						c-5.1,10.8-14.6,24.1-14.7,24.2l-0.2,0.3l-1.1-0.8l0.2-0.3c0.4-0.6,9.6-13.5,14.6-23.9c-4-1.9-6.5-4.6-6.9-7.7
						c-0.5-2.7,0.7-5.4,3-6.9c1.9-1.2,4.3-1.2,6.2,0.1c1.1,0.8,2.9,2.9,1.9,7.4c-0.5,2.2-1.3,4.3-2.3,6.4c1.4,0.5,2.8,0.9,4.2,1.2
						c0.3-0.5,0.6-1.1,0.8-1.6c3.3-6.1,7.2-6.4,8.8-6.2c2,0.1,3.8,1.5,4.5,3.4c0.5,1.6-0.1,3.4-1.5,4.4c-2.2,1.8-6.9,2.5-11.9,1.6
						c-5.7,11-12.8,26.3-13.1,27l-0.2,0.4L755.7,454z M764.5,411.5c-1.4-0.7-3-0.6-4.3,0.2c-1.8,1.2-2.8,3.4-2.3,5.5
						c0.5,3.3,3.5,5.4,6.1,6.6c0.9-2,1.7-4,2.2-6.1c0.4-1.4,0.4-2.9-0.1-4.3c-0.2-0.7-0.7-1.3-1.3-1.7
						C764.7,411.7,764.6,411.6,764.5,411.5 M780.7,419.7c-0.5-0.3-1.1-0.4-1.7-0.5c-1.3-0.1-4.6,0.2-7.5,5.5
						c-0.2,0.4-0.4,0.8-0.6,1.2c4.4,0.6,8.5,0.1,10.3-1.4c0.9-0.6,1.4-1.8,1.1-2.9c0-0.1,0-0.1-0.1-0.2
						C782,420.7,781.4,420,780.7,419.7"/>
					<path id="Tracé_348" class="st5" d="M751.5,470.5c-3.5,5.5-14.8,0-13.1-6.6c-2.7-3.6,1.3-6,1.3-6c-0.2-0.6-0.2-1.3-0.2-1.9
						c0.1-1.7,1.2-3.2,2.8-3.9c-0.3-1-0.2-2,0.3-3c0.7-1.3,1.7-2.5,3-3.3l16.6,8.3c0.3,1.5,0,3-0.7,4.3c-0.6,0.9-1.6,1.6-2.7,1.8
						c0.6,1.1,0.4,2.4-0.3,3.4c-0.9,0.9-2,1.6-3.2,1.9C755.2,465.5,756.1,470.6,751.5,470.5"/>
					<path id="Tracé_349" class="st4" d="M758.8,460.2l-16.5-8.2c-0.3-1-0.2-2,0.3-3l18.9,9.3C760.8,459.4,759.9,460,758.8,460.2"
						/>
					<path id="Tracé_350" class="st4" d="M758.4,463.6c-0.9,0.9-2,1.6-3.2,1.9l-15.5-7.6c-0.2-0.6-0.2-1.3-0.2-1.9L758.4,463.6z"/>
					<g id="Groupe_86" transform="translate(781.602 404.181)" class="st27">
						<g id="Groupe_85">
							<g>
								<defs>
									<rect id="SVGID_00000174597540968453917870000010492248901232032943_" x="0" y="0" width="10.6" height="10.8"/>
								</defs>
								<clipPath id="SVGID_00000175314177493579422540000008940725279284220800_">
									<use xlink:href="#SVGID_00000174597540968453917870000010492248901232032943_"  style="overflow:visible;"/>
								</clipPath>
								<g id="Groupe_84" style="clip-path:url(#SVGID_00000175314177493579422540000008940725279284220800_);">
									<path id="Tracé_351" class="st7" d="M1.5,0.3c-5,2.2,4.2,11.6,8,10.4S6.4-1.9,1.5,0.3"/>
								</g>
							</g>
						</g>
					</g>
					<g id="Groupe_89" transform="translate(786.091 417.618)" class="st27">
						<g id="Groupe_88">
							<g>
								<defs>
									<rect id="SVGID_00000143578050267519664230000010082809593754283710_" x="0" y="0" width="7.2" height="7"/>
								</defs>
								<clipPath id="SVGID_00000151503063449472274280000008960505099974496172_">
									<use xlink:href="#SVGID_00000143578050267519664230000010082809593754283710_"  style="overflow:visible;"/>
								</clipPath>
								<g id="Groupe_87" style="clip-path:url(#SVGID_00000151503063449472274280000008960505099974496172_);">
									<path id="Tracé_352" class="st7" d="M3.4,0c-5.5-0.1-3.6,6.4,0.4,6.9S8.9,0.1,3.4,0"/>
								</g>
							</g>
						</g>
					</g>
					<path id="Tracé_353" class="st2" d="M215.8,438.7c-1.8,5.6-0.4,12,1,16.3c0.6,1.7,1.2,3.4,2,5l-16.7,8.1
						c0,0-2.6-13.2-14.8-17.2c-11.1-3.7-20.5-10.6-18.3-21.6c0.2-1.2,0.6-2.4,1.1-3.5c6.9-17.3,26-22.2,38.5-16.9
						C221.1,414.1,218.8,429.2,215.8,438.7"/>
					<path id="Tracé_354" class="st7" d="M207.7,467.2c-0.1-0.2-4.9-16.1-10.4-26.7c0.1-0.1,0.2-0.1,0.4-0.2
						c1.3-0.8,2.6-1.8,3.8-2.8c5.4,11.5,13.4,26.9,13.5,27l0.5-0.3c-0.1-0.2-8.2-15.6-13.6-27.2c3.6-3.3,6.1-7.4,6-10.3
						c0.1-1.5-0.9-2.9-2.3-3.5c-1.8-0.6-3.7,0-5,1.4c-1,1.1-3.1,4.3-0.3,10.3c0.3,0.6,0.6,1.3,0.9,1.9c-1.2,1.1-2.5,2-3.8,2.9
						c-0.1,0.1-0.2,0.1-0.3,0.2c-1.1-2.1-2.4-4.1-3.8-6c-2.8-3.4-5.3-3.3-6.6-2.9c-2,0.7-3.3,2.4-3.5,4.5c-0.2,2.6,1.1,5,3.4,6.1
						c2.7,1.5,6.3,1.2,10.3-1c5.5,10.5,10.3,26.4,10.3,26.6L207.7,467.2z M192.8,434.4c1.5,1.8,2.7,3.8,3.8,5.9
						c-2.5,1.4-6.5,2.9-9.8,1c-2.1-1-3.4-3.3-3.2-5.6c0.2-1.8,1.4-3.4,3.1-4c0.8-0.2,1.6-0.2,2.4,0
						C190.5,432.3,191.8,433.2,192.8,434.4 M205.4,423.9c1.2,0.5,2,1.7,1.9,3c0.1,2.7-2.3,6.6-5.7,9.8c-0.3-0.6-0.5-1.2-0.8-1.7
						c-2.6-5.8-0.7-8.7,0.2-9.7c1-1.2,2.7-1.7,4.2-1.3C205.3,423.8,205.4,423.9,205.4,423.9"/>
					<path id="Tracé_355" class="st7" d="M214.8,465.1l-0.2-0.4c-0.3-0.6-8-15.3-13.3-26.5c-1.1,0.9-2.2,1.7-3.4,2.5l0,0
						c5.5,10.7,10.2,26.2,10.2,26.4l0.1,0.4l-1.3,0.4l-0.1-0.4c-0.2-0.7-4.8-15.8-10.1-26.1c-4,2.1-7.6,2.3-10.3,0.8
						c-2.5-1.2-3.9-3.8-3.6-6.5c0.2-2.2,1.7-4.1,3.8-4.9c1.3-0.4,4.1-0.5,7,3c1.4,1.8,2.6,3.7,3.7,5.7c1.2-0.8,2.4-1.6,3.5-2.6
						c-0.3-0.6-0.5-1.1-0.7-1.6c-2.9-6.3-0.7-9.6,0.4-10.8c1.4-1.5,3.5-2.1,5.4-1.5c1.6,0.6,2.6,2.2,2.5,3.8c0.1,2.9-2.2,7-5.9,10.4
						c5.2,11.2,13.1,26.2,13.4,26.9l0.2,0.4L214.8,465.1z M186.4,432.3c-1.4,0.7-2.3,2-2.4,3.5c-0.2,2.2,1,4.2,2.9,5.2
						c2.9,1.6,6.4,0.5,9-0.8c-1-1.9-2.2-3.8-3.5-5.5c-0.9-1.2-2.1-2.1-3.5-2.6c-0.7-0.2-1.4-0.2-2.1,0
						C186.7,432.2,186.6,432.2,186.4,432.3 M202.8,424.4c-0.5,0.2-1,0.6-1.4,1c-0.9,0.9-2.7,3.7-0.2,9.3c0.2,0.4,0.4,0.8,0.6,1.2
						c3.2-3.1,5.3-6.7,5.2-9.1c0.1-1.1-0.6-2.2-1.6-2.6c-0.1,0-0.1,0-0.2-0.1C204.3,424,203.5,424.1,202.8,424.4"/>
					<path id="Tracé_356" class="st5" d="M225.3,478.5c2.2,6.1-9,11.8-13.2,6.3c-4.5,0-3.9-4.7-3.9-4.7c-0.6-0.2-1.1-0.6-1.6-1
						c-1.3-1.1-1.8-2.9-1.4-4.6c-0.9-0.4-1.7-1.1-2.2-2c-0.7-1.4-0.9-2.9-0.8-4.4l16.7-8.1c1.3,0.7,2.4,1.8,3,3.2
						c0.4,1.1,0.3,2.3-0.2,3.3c1.2,0.2,2.2,1.1,2.5,2.3c0.2,1.3,0.1,2.5-0.4,3.7C223.6,472.5,228.2,474.9,225.3,478.5"/>
					<path id="Tracé_357" class="st4" d="M221.6,466.5l-16.5,8.1c-0.9-0.4-1.7-1.1-2.2-2l18.9-9.3
						C222.2,464.3,222.1,465.5,221.6,466.5"/>
					<path id="Tracé_358" class="st4" d="M224.1,468.8c0.2,1.3,0.1,2.5-0.4,3.7l-15.5,7.6c-0.6-0.2-1.1-0.6-1.6-1L224.1,468.8z"/>
					<g id="Groupe_92" transform="translate(192.062 409.794)" class="st27">
						<g id="Groupe_91">
							<g>
								<defs>
									<rect id="SVGID_00000118394938106925415950000011542697790195368366_" x="0" y="0" width="13.3" height="6.9"/>
								</defs>
								<clipPath id="SVGID_00000072239879230582709470000002685955872823493299_">
									<use xlink:href="#SVGID_00000118394938106925415950000011542697790195368366_"  style="overflow:visible;"/>
								</clipPath>
								<g id="Groupe_90" style="clip-path:url(#SVGID_00000072239879230582709470000002685955872823493299_);">
									<path id="Tracé_359" class="st7" d="M0.1,3.5c-1.3,5.3,11.7,3.7,13.1-0.1S1.4-1.8,0.1,3.5"/>
								</g>
							</g>
						</g>
					</g>
					<g id="Groupe_95" transform="translate(205.511 414.563)" class="st27">
						<g id="Groupe_94">
							<g>
								<defs>
									<rect id="SVGID_00000109721702585857850590000011285565852496312193_" x="0" y="0" width="7.6" height="6.7"/>
								</defs>
								<clipPath id="SVGID_00000016074915429240556790000010329900054392938398_">
									<use xlink:href="#SVGID_00000109721702585857850590000011285565852496312193_"  style="overflow:visible;"/>
								</clipPath>
								<g id="Groupe_93" style="clip-path:url(#SVGID_00000016074915429240556790000010329900054392938398_);">
									<path id="Tracé_360" class="st7" d="M1,1.6c-3.4,4.3,2.9,6.7,5.8,3.9S4.4-2.7,1,1.6"/>
								</g>
							</g>
						</g>
					</g>
					<path id="Tracé_361" class="st32" d="M483.2,403.7c2,2.6,2.5,6.3,2.6,8.8c0,1,0,2-0.1,3l10.4,1.1c0,0-1.1-7.5,4.5-11.9
						c5.2-4,8.8-9.5,5.6-14.9c-0.4-0.6-0.8-1.2-1.2-1.7c-6.1-6.9-16.6-7.6-23.5-1.6C475.8,391.7,479.8,399.2,483.2,403.7"/>
					<g id="Groupe_98" transform="translate(486.414 338.485)" class="st27">
						<g id="Groupe_97">
							<g>
								<defs>
									<rect id="SVGID_00000135659073660786268640000006330225220020496276_" x="0" y="0" width="13.2" height="7.3"/>
								</defs>
								<clipPath id="SVGID_00000163788701716088042330000002254443360903844016_">
									<use xlink:href="#SVGID_00000135659073660786268640000006330225220020496276_"  style="overflow:visible;"/>
								</clipPath>
								<g id="Groupe_96" style="clip-path:url(#SVGID_00000163788701716088042330000002254443360903844016_);">
									<path id="Tracé_362" class="st7" d="M12.7,1.7C15.8,6.2,3,9.1,0.4,6S9.7-2.9,12.7,1.7"/>
								</g>
							</g>
						</g>
					</g>
					<g id="Groupe_101" transform="translate(480.882 347.05)" class="st27">
						<g id="Groupe_100">
							<g>
								<defs>
									<rect id="SVGID_00000041275563293745067430000003664442321504648102_" x="0" y="0" width="7.6" height="6.7"/>
								</defs>
								<clipPath id="SVGID_00000038373969635375040380000017119924519185239481_">
									<use xlink:href="#SVGID_00000041275563293745067430000003664442321504648102_"  style="overflow:visible;"/>
								</clipPath>
								<g id="Groupe_99" style="clip-path:url(#SVGID_00000038373969635375040380000017119924519185239481_);">
									<path id="Tracé_363" class="st7" d="M5.7,0.7C10.4,3.6,5.3,8,1.6,6.3S1.1-2.2,5.7,0.7"/>
								</g>
							</g>
						</g>
					</g>
					<path id="Tracé_364" class="st35" d="M493,416.2c0,0-0.8-17.3,2.5-21.1c3.3-3.8,6.7,1.1,4.2,4c-2.5,2.9-12.6,0.8-15-2.9
						c-2.4-3.6,1.7-6,5-0.7c3.3,5.3-1.1,20.2-1.1,20.2"/>
					<path id="Tracé_365" class="st5" d="M485.8,426.5c0,3.7,7,4.5,8.2,0.8c2.4-0.9,1.2-3.2,1.2-3.2c0.3-0.2,0.5-0.5,0.7-0.8
						c0.5-0.9,0.4-1.9-0.1-2.7c0.4-0.4,0.7-0.9,0.8-1.5c0.1-0.8-0.1-1.7-0.4-2.5l-10.4-1.1c-0.6,0.6-0.9,1.4-1,2.3
						c0,0.6,0.3,1.2,0.7,1.7c-0.6,0.3-0.9,1-0.9,1.7c0.1,0.7,0.5,1.3,0.9,1.9C485.5,423,483.6,425.2,485.8,426.5"/>
					<path id="Tracé_366" class="st4" d="M485.5,419.5l10.2,1.1c0.4-0.4,0.7-0.9,0.8-1.5l-11.8-1.3
						C484.7,418.4,485,419,485.5,419.5"/>
					<path id="Tracé_367" class="st4" d="M484.6,421.2c0.1,0.7,0.5,1.3,0.9,1.9l9.6,1.1c0.3-0.2,0.5-0.5,0.7-0.8L484.6,421.2z"/>
				</g>
			</g>
		</g>
	</g>
</g>
</svg>
