<svg xmlns="http://www.w3.org/2000/svg" xmlns:xlink="http://www.w3.org/1999/xlink" width="30" height="30" viewBox="0 0 30 30">
  <defs>
    <clipPath id="clip-path">
      <rect id="Rectangle_3" data-name="Rectangle 3" width="30" height="30" transform="translate(0 0)" fill="#fff"/>
    </clipPath>
  </defs>
  <g id="Groupe_5" data-name="Groupe 5" transform="translate(0 -0.002)">
    <g id="Groupe_4" data-name="Groupe 4" transform="translate(0 0.002)" clip-path="url(#clip-path)">
      <path id="Tracé_5" data-name="Tracé 5" d="M30,15.094A15,15,0,1,0,12.656,30V19.456H8.848V15.094h3.809V11.769c0-3.782,2.239-5.872,5.666-5.872a22.931,22.931,0,0,1,3.358.295V9.906H19.788a2.175,2.175,0,0,0-2.444,2.357v2.831H21.5l-.665,4.362h-3.5V30A15.067,15.067,0,0,0,30,15.094" transform="translate(0 -0.002)" fill="#fff"/>
    </g>
  </g>
</svg>
