<svg xmlns="http://www.w3.org/2000/svg" xmlns:xlink="http://www.w3.org/1999/xlink" width="42.01" height="29.146" viewBox="0 0 42.01 29.146">
  <defs>
    <clipPath id="clip-path">
      <rect id="Rectangle_68" data-name="Rectangle 68" width="42.01" height="29.146" fill="none"/>
    </clipPath>
  </defs>
  <g id="Groupe_123" data-name="Groupe 123" transform="translate(0 0)">
    <g id="Groupe_122" data-name="Groupe 122" transform="translate(0 0)" clip-path="url(#clip-path)">
      <path id="Tracé_370" data-name="Tracé 370" d="M41.169,4c-.487,0-2.036-.044-4.117.044V.9a.879.879,0,0,0-.841-.885C34.927-.026,24.569-.248,20.983,3.6,17.353-.248,6.994-.026,5.755.018A.851.851,0,0,0,4.914.9V4.046C2.877,3.958,1.328,4,.841,4A.851.851,0,0,0,0,4.887V27.951a.924.924,0,0,0,.354.708.773.773,0,0,0,.753.133c.133-.044,12.218-3.409,17.663-.266a4.422,4.422,0,0,0,4.515,0c5.356-3.187,17.486.177,17.619.221a.9.9,0,0,0,.753-.133.86.86,0,0,0,.354-.708V4.887A.851.851,0,0,0,41.169,4M12.041,25.383A46.109,46.109,0,0,0,1.682,26.756V5.728c.885,0,1.992,0,3.187.044V22.86a.908.908,0,0,0,.885.885c.089,0,7.393-.221,11.775,2.39a17.9,17.9,0,0,0-5.489-.753m8.057.4C16.246,22.373,9.163,21.975,6.64,21.975V1.744c3.807,0,11.687.575,13.457,3.586Zm1.771,0V5.286C23.639,2.276,31.519,1.7,35.326,1.7V21.93c-2.523.089-9.606.443-13.457,3.851m18.415.974c-2.877-.708-10.58-2.3-15.848-.664,4.427-2.568,11.687-2.39,11.775-2.39a.8.8,0,0,0,.62-.266.874.874,0,0,0,.266-.62V5.773c1.2-.044,2.3-.044,3.187-.044Z" transform="translate(0 0)"/>
      <path id="Tracé_371" data-name="Tracé 371" d="M20.58,14.595a34.151,34.151,0,0,1,7.26,1.549.753.753,0,0,0,.31.044.888.888,0,0,0,.841-.62.953.953,0,0,0-.531-1.2A33.712,33.712,0,0,0,20.8,12.735a.936.936,0,0,0-1.018.8.915.915,0,0,0,.8,1.062" transform="translate(-11.018 -7.095)"/>
      <path id="Tracé_372" data-name="Tracé 372" d="M28.416,27.183a28.885,28.885,0,0,0-7.7-1.948.914.914,0,1,0-.221,1.815,29.193,29.193,0,0,1,7.216,1.815,1.042,1.042,0,0,0,.354.089.908.908,0,0,0,.841-.575.863.863,0,0,0-.487-1.2" transform="translate(-10.975 -14.062)"/>
      <path id="Tracé_373" data-name="Tracé 373" d="M28.46,39.516a22.2,22.2,0,0,0-7.747-2.081.934.934,0,1,0-.177,1.859,21.907,21.907,0,0,1,7.127,1.9,1.292,1.292,0,0,0,.4.089.93.93,0,0,0,.4-1.771" transform="translate(-10.975 -20.861)"/>
      <path id="Tracé_374" data-name="Tracé 374" d="M55.065,16.233a.753.753,0,0,0,.31-.044,33.6,33.6,0,0,1,7.26-1.549.9.9,0,0,0,.8-1.018.881.881,0,0,0-1.018-.8,36.322,36.322,0,0,0-7.658,1.638.916.916,0,0,0-.531,1.2.828.828,0,0,0,.841.575" transform="translate(-30.186 -7.14)"/>
      <path id="Tracé_375" data-name="Tracé 375" d="M55.033,28.843a1.042,1.042,0,0,0,.354-.089A29.193,29.193,0,0,1,62.6,26.939a.936.936,0,0,0,.8-1.018.9.9,0,0,0-1.018-.8,30.664,30.664,0,0,0-7.7,1.992.876.876,0,0,0-.487,1.2.83.83,0,0,0,.841.531" transform="translate(-30.154 -13.995)"/>
      <path id="Tracé_376" data-name="Tracé 376" d="M62.38,37.435a23.2,23.2,0,0,0-7.747,2.081.942.942,0,0,0-.443,1.239.992.992,0,0,0,.841.531,1.293,1.293,0,0,0,.4-.089,20.854,20.854,0,0,1,7.127-1.9.934.934,0,1,0-.177-1.859" transform="translate(-30.153 -20.861)"/>
    </g>
  </g>
</svg>
