<?xml version="1.0" encoding="utf-8"?>
<!-- Generator: Adobe Illustrator 28.0.0, SVG Export Plug-In . SVG Version: 6.00 Build 0)  -->
<svg version="1.1" id="Calque_1" xmlns="http://www.w3.org/2000/svg" xmlns:xlink="http://www.w3.org/1999/xlink" x="0px" y="0px"
	 viewBox="0 0 744 637" style="enable-background:new 0 0 744 637;" xml:space="preserve">
<style type="text/css">
	.st0{clip-path:url(#SVGID_00000140726629839827133650000006187693501042774188_);}
	.st1{fill:#F9EEE1;}
	.st2{fill:#FCC130;}
	.st3{clip-path:url(#SVGID_00000035494184435449464310000010652363647325043369_);fill:#449DF9;}
	.st4{clip-path:url(#SVGID_00000035494184435449464310000010652363647325043369_);fill:#689DF7;}
	.st5{clip-path:url(#SVGID_00000035494184435449464310000010652363647325043369_);fill:#4450E4;}
	.st6{clip-path:url(#SVGID_00000035494184435449464310000010652363647325043369_);fill:#4951E0;}
	.st7{fill:#FFFFFF;}
	.st8{fill:none;stroke:#EEC142;stroke-linecap:round;stroke-linejoin:round;}
	.st9{fill:#689DF7;}
	.st10{fill:#DE625E;}
	.st11{fill:#4951E0;}
	.st12{fill:#EFF0F4;}
	.st13{fill:#F3EBBE;}
	.st14{fill:#DA963C;}
	.st15{opacity:0.24;}
	.st16{fill:#3C46CB;}
	.st17{fill:#36373A;}
	.st18{fill:#4450E5;}
	.st19{fill:#D4D9E9;}
	.st20{fill:#4376F8;}
	.st21{fill:none;stroke:#A1B1C9;stroke-linecap:round;stroke-linejoin:round;}
	.st22{fill:#449DF9;}
	.st23{fill:#EEEFF4;}
	.st24{fill:#C62C4E;}
	.st25{fill:#FD625E;}
	.st26{fill:none;stroke:#393A3D;stroke-linecap:round;stroke-linejoin:round;}
	.st27{clip-path:url(#SVGID_00000026856943272975090860000004810212372409591962_);fill:#FDC230;}
	
		.st28{clip-path:url(#SVGID_00000026856943272975090860000004810212372409591962_);fill:none;stroke:#DA963C;stroke-linecap:round;stroke-linejoin:round;}
	.st29{clip-path:url(#SVGID_00000026856943272975090860000004810212372409591962_);fill:#FD625E;}
	
		.st30{clip-path:url(#SVGID_00000026856943272975090860000004810212372409591962_);fill:none;stroke:#AB304E;stroke-linecap:round;stroke-linejoin:round;}
	.st31{clip-path:url(#SVGID_00000049901957953038232610000013123899628942277546_);fill:#FDC230;}
	
		.st32{clip-path:url(#SVGID_00000049901957953038232610000013123899628942277546_);fill:none;stroke:#DA963C;stroke-linecap:round;stroke-linejoin:round;}
	.st33{clip-path:url(#SVGID_00000049901957953038232610000013123899628942277546_);fill:#FD625E;}
	
		.st34{clip-path:url(#SVGID_00000049901957953038232610000013123899628942277546_);fill:none;stroke:#AB304E;stroke-linecap:round;stroke-linejoin:round;}
	.st35{fill:#4450E4;}
	.st36{clip-path:url(#SVGID_00000139266926709589949750000014633551624333026736_);}
	.st37{clip-path:url(#SVGID_00000098209975199386587220000001215280694293362060_);}
	.st38{clip-path:url(#SVGID_00000111885101970095741790000001696205891678127286_);}
	.st39{clip-path:url(#SVGID_00000093148142528059916710000002312373064334585235_);}
	.st40{fill:#F8F5E2;}
	.st41{clip-path:url(#SVGID_00000119111516270128135330000015835872754292391063_);}
	.st42{clip-path:url(#SVGID_00000106825950756279264760000003039579142559075771_);}
	.st43{fill:none;stroke:#FC625E;stroke-linecap:round;stroke-linejoin:round;stroke-miterlimit:10;}
</style>
<g>
	<defs>
		<rect id="SVGID_1_" x="0" y="0" width="744" height="639"/>
	</defs>
	<clipPath id="SVGID_00000098186044742857476860000006961507621345455531_">
		<use xlink:href="#SVGID_1_"  style="overflow:visible;"/>
	</clipPath>
	<g style="clip-path:url(#SVGID_00000098186044742857476860000006961507621345455531_);">
		<rect id="Rectangle_132" x="-35.07" y="-214.34" class="st1" width="806.1" height="852.22"/>
		<g>
			<path id="Tracé_247" class="st2" d="M819.28-43.32H479.87v-0.12H271.63v0.12H-73.46c0,0,55.07,90.32,29.04,165.87
				c-24.18,70.17,20.02,148.42,92.11,165.31c72.09,16.89,73.09,50.66,85.1,124.43s76.09,73.77,76.09,73.77l88.86-12.27h150.35
				l88.85,12.27c0,0,64.08,0,76.09-73.77c12.02-73.77,13.02-107.54,85.1-124.43c72.09-16.89,116.29-95.14,92.11-165.31
				C764.21,47,819.28-43.32,819.28-43.32"/>
		</g>
		<g>
			<defs>
				<rect id="SVGID_00000071542611196910596620000010183403659322888107_" x="50.42" y="428.46" width="644.99" height="210.2"/>
			</defs>
			<clipPath id="SVGID_00000124141664026867574720000003042104462214578104_">
				<use xlink:href="#SVGID_00000071542611196910596620000010183403659322888107_"  style="overflow:visible;"/>
			</clipPath>
			<path id="Tracé_248" style="clip-path:url(#SVGID_00000124141664026867574720000003042104462214578104_);fill:#449DF9;" d="
				M679.07,638.43H66.8c0.9-2.07,1.81-4.13,2.73-6.2c0.46-1.03,0.94-2.05,1.43-3.07c0.27-0.61,0.56-1.2,0.85-1.79
				c0.46-1.01,0.95-2.02,1.44-3.01c0.21-0.45,0.43-0.88,0.64-1.32c0.62-1.25,1.25-2.51,1.88-3.75c0.75-1.48,1.51-2.95,2.29-4.41
				c0.17-0.31,0.32-0.63,0.49-0.94c0.61-1.14,1.21-2.27,1.85-3.4c17.29-31.7,39.65-60.35,66.19-84.81c2.39-2.22,4.83-4.4,7.29-6.55
				c1.24-1.07,2.48-2.13,3.71-3.19c1.24-1.06,2.5-2.11,3.77-3.14c2.36-1.94,4.75-3.85,7.17-5.72c3-2.34,6.05-4.6,9.09-6.82
				c3.05-2.22,6.14-4.37,9.25-6.46c6.22-4.19,12.53-8.14,18.95-11.85c8.57-4.99,17.28-9.56,26.14-13.71c1.5-0.7,2.99-1.39,4.5-2.07
				c79.62-35.66,170.01-38.73,251.85-8.55c12.3,4.49,24.31,9.74,35.97,15.71c29.34,14.91,56.29,34.14,79.95,57.03
				c11.59,11.2,22.37,23.22,32.24,35.97c2.31,2.99,4.56,6.01,6.76,9.06c12.11,16.75,22.64,34.59,31.45,53.29
				c0.43,0.9,0.85,1.81,1.28,2.73c0.9,1.94,1.77,3.89,2.62,5.85c0.18,0.37,0.34,0.75,0.5,1.12"/>
			<path id="Tracé_249" style="clip-path:url(#SVGID_00000124141664026867574720000003042104462214578104_);fill:#689DF7;" d="
				M69.53,632.22c-0.94,2.05-1.83,4.13-2.73,6.2l0,0C67.7,636.36,68.61,634.29,69.53,632.22"/>
			<path id="Tracé_250" style="clip-path:url(#SVGID_00000124141664026867574720000003042104462214578104_);fill:#4450E4;" d="
				M324.15,638.43H66.8c0.9-2.07,1.81-4.13,2.73-6.2c0.46-1.03,0.94-2.05,1.43-3.07c0.27-0.61,0.56-1.2,0.85-1.79
				c0.46-1.01,0.95-2.02,1.44-3.01c0.21-0.45,0.43-0.88,0.64-1.32c0.62-1.25,1.25-2.51,1.88-3.75c1.5-2.95,3.05-5.86,4.62-8.75
				c17.36-31.65,39.71-60.29,66.19-84.81c2.4-2.22,4.83-4.41,7.29-6.55c1.24-1.07,2.48-2.13,3.71-3.19c1.24-1.06,2.5-2.11,3.77-3.14
				c2.36-1.94,4.75-3.85,7.17-5.72c2.99-2.34,6.02-4.61,9.09-6.82c3.04-2.22,6.13-4.37,9.25-6.46
				c14.34-9.69,29.41-18.24,45.09-25.57c1.5-0.7,2.99-1.39,4.5-2.07c4.53,15.25,13.71,28.7,26.25,38.48
				c11.29,8.64,24.78,13.89,36.72,21.59c11.97,7.69,22.95,19.06,24.47,33.19s-10.71,29.83-24.68,27.2
				c13.05,8.49,23.39,22,25.53,37.43c0.66,4.77,0.46,9.63-0.59,14.33"/>
			<path id="Tracé_251" style="clip-path:url(#SVGID_00000124141664026867574720000003042104462214578104_);fill:#4951E0;" d="
				M561.85,495.8c-7.87,12.15-19.5,21.38-33.11,26.28c-20.87,6.95-43.65,1.12-64.62-5.48c-7.72-2.42-16.12-5.55-19.96-12.66
				c-6.02-11.03,1.97-26.18-4.79-36.8c-5.06-7.93-16.79-10.25-20.53-18.9c-1.04-2.59-1.41-5.4-1.09-8.17
				C469.5,446.99,518.88,466.09,561.85,495.8"/>
			<path id="Tracé_252" style="clip-path:url(#SVGID_00000124141664026867574720000003042104462214578104_);fill:#4951E0;" d="
				M274.9,483.55c-0.23,2.91,0.63,5.8,2.39,8.13c3.05,4.04,6.89,7.41,11.29,9.92c2.35,1.66,4.98,2.88,7.77,3.59
				c6.09,1,12.12-2.15,14.78-7.73c2.42-5.66,1.22-12.22-3.04-16.65c-1.61-1.59-3.47-2.92-5.49-3.93
				C295.43,473.12,276.51,472.12,274.9,483.55"/>
			<path id="Tracé_253" style="clip-path:url(#SVGID_00000124141664026867574720000003042104462214578104_);fill:#4951E0;" d="
				M315.86,526.55c1.97,1.93,4.41,3.32,7.07,4.04c2.14,0.72,4.32,1.31,6.53,1.77c1.75,0.48,3.59,0.54,5.37,0.19
				c1.72-0.54,3.26-1.55,4.43-2.93c2.73-2.88,4.2-6.74,4.08-10.71c-0.19-4-2.41-7.62-5.89-9.59c-1.38-0.66-2.82-1.17-4.31-1.51
				c-5.26-1.42-12.56-2.06-16.79,2.37C312.53,514.13,312.22,522.5,315.86,526.55"/>
			<path id="Tracé_254" style="clip-path:url(#SVGID_00000124141664026867574720000003042104462214578104_);fill:#4951E0;" d="
				M679.06,638.43h-37.21c8.21-3.88,16.88-6.69,25.8-8.35c2.31-0.4,4.68-0.81,7.03-1.35c0.43,0.9,0.85,1.81,1.28,2.73
				c0.9,1.94,1.77,3.89,2.62,5.85C678.75,637.69,678.9,638.06,679.06,638.43"/>
			<path id="Tracé_255" style="clip-path:url(#SVGID_00000124141664026867574720000003042104462214578104_);fill:#4951E0;" d="
				M655.86,594.23c-1.71,3.44-3.66,6.75-5.85,9.91c-1.53,2.21-3.71,4.6-6.36,4.32c-1.44-0.27-2.77-0.95-3.84-1.94
				c-13.63-10.6-25.25-23.58-34.3-38.3c-2.81-3.94-4.54-8.56-5-13.38c0.23-3.93,1.22-7.78,2.92-11.34l3.98-9.91
				C625.88,551.84,642.14,572.19,655.86,594.23"/>
		</g>
		<g>
			<path id="Tracé_256" class="st7" d="M779.92,262.79c-4.99-1.64-9.96-3.36-14.82-5.34c-2.53-1.03-5.03-2.13-7.46-3.36
				c-2.18-1.12-4.23-2.42-6.3-3.73c-2.13-1.14-4-2.71-5.48-4.61c-1.32-2.08-1.61-4.67-0.77-6.99c0.87-2.44,2.5-4.53,4.64-5.98
				c2.46-1.61,5.28-2.56,8.21-2.77c3.05-0.23,6.11-0.13,9.14,0.29c3.03,0.36,6.05,0.86,9.04,1.52c11.9,2.58,23.21,7.37,33.34,14.13
				c2.52,1.52,4.76,3.45,6.63,5.72c1.82,2.23,2.59,5.14,2.11,7.98c-0.7,2.52-2.5,4.58-4.9,5.61c-2.83,1.17-5.91,1.61-8.96,1.29
				c-3.3-0.16-6.6-0.49-9.88-0.9c-3.3-0.39-6.57-0.97-9.8-1.71c-1.58-0.37-3.14-0.79-4.69-1.27c-0.69-0.22-0.99,0.87-0.3,1.09
				c6.63,1.92,13.44,3.13,20.32,3.61c5.87,0.51,13.09,1.19,17.39-3.76c1.88-2.2,2.56-5.19,1.83-7.99c-0.81-2.91-2.5-5.5-4.84-7.4
				c-2.38-1.99-4.93-3.77-7.61-5.33c-2.69-1.64-5.45-3.15-8.3-4.52c-5.66-2.74-11.57-4.93-17.65-6.55
				c-3.05-0.81-6.13-1.47-9.24-1.98c-3.13-0.55-6.3-0.89-9.47-1.03c-3.19-0.19-6.38,0.24-9.4,1.25c-2.64,0.94-4.96,2.62-6.68,4.83
				c-1.68,2.08-2.53,4.71-2.4,7.39c0.26,2.5,1.52,4.79,3.5,6.35c2.01,1.58,4.13,3.02,6.35,4.29c2.23,1.36,4.55,2.57,6.94,3.63
				c5.17,2.32,10.48,4.33,15.9,6c1.13,0.36,2.27,0.7,3.41,1.04c0.21,0.06,0.42-0.06,0.48-0.27c0.06-0.21-0.06-0.42-0.27-0.48l0,0"/>
			<path id="Tracé_257" class="st7" d="M797.2,245.65c-1.65-5.24-3.57-10.4-5.74-15.45c-1.12-2.57-2.31-5.12-3.66-7.58
				c-1.23-2.24-2.65-4.35-4.07-6.46c-1.26-2.17-3.04-3.99-5.17-5.3c-2.35-1.15-5.08-1.24-7.49-0.24c-2.5,1.03-4.63,2.78-6.12,5.03
				c-1.63,2.57-2.59,5.51-2.78,8.55c-0.21,3.23-0.05,6.47,0.47,9.66c0.43,3.11,1.01,6.19,1.74,9.25c1.47,6.11,3.51,12.06,6.11,17.78
				c2.57,5.7,5.69,11.13,9.31,16.23c1.67,2.57,3.8,4.79,6.3,6.56c2.49,1.71,5.57,2.29,8.51,1.61c2.6-0.83,4.73-2.74,5.84-5.24
				c1.26-2.94,1.74-6.15,1.4-9.33c-0.2-3.42-0.63-6.85-1.12-10.24c-0.47-3.4-1.12-6.77-1.95-10.09c-0.41-1.61-0.88-3.2-1.4-4.78
				c-0.22-0.69-1.32-0.39-1.09,0.3c1.99,6.33,3.31,12.85,3.93,19.46c0.62,5.62,1.72,12.75-2.88,17.09
				c-2.02,1.85-4.86,2.49-7.48,1.69c-2.8-0.89-5.26-2.61-7.05-4.93c-1.89-2.31-3.61-4.75-5.15-7.31c-1.6-2.56-3.08-5.19-4.44-7.89
				c-2.72-5.4-4.93-11.04-6.61-16.84c-0.84-2.92-1.55-5.88-2.12-8.88c-0.6-3-1.02-6.03-1.25-9.09c-0.28-3.09,0-6.21,0.84-9.19
				c0.78-2.59,2.29-4.89,4.36-6.63c1.91-1.65,4.38-2.5,6.9-2.38c2.35,0.3,4.48,1.55,5.88,3.47c0.78,0.97,1.51,1.99,2.19,3.05
				c0.67,1.01,1.36,2.02,2.02,3.04c1.35,2.17,2.57,4.42,3.65,6.74c2.37,4.98,4.33,10.13,6.22,15.3c0.4,1.09,0.79,2.18,1.17,3.27
				C796.61,246.32,797.34,246.13,797.2,245.65"/>
			<path id="Tracé_258" class="st7" d="M790.7,260.99c4.42-4,8.6-8.25,12.54-12.73c1.96-2.21,3.79-4.53,5.48-6.95
				c0.82-1.19,1.55-2.44,2.32-3.66c0.9-1.37,1.7-2.8,2.4-4.28c0.66-1.39,1-2.92,1.01-4.46c-0.05-1.46-0.47-2.89-1.22-4.15
				c-1.42-2.28-3.57-4.01-6.1-4.9c-6.15-2.33-12.62,0.22-17.96,3.38c-2.74,1.63-5.41,3.41-8.02,5.23c-2.51,1.74-4.96,3.57-7.33,5.51
				c-4.67,3.77-8.92,8.05-12.66,12.75c-1.92,2.44-3.69,5-5.28,7.66c-1.39,2.33-2.78,4.69-3.96,7.14c-0.6,1.18-1.09,2.41-1.46,3.68
				c-0.32,1.21-0.43,2.47-0.33,3.72c0.03,2.78,1.06,5.45,2.91,7.52c2.12,1.62,4.78,2.35,7.43,2.04c1.39-0.04,2.77-0.23,4.12-0.57
				c1.67-0.46,3.28-1.1,4.8-1.91c3.11-1.6,6.09-3.48,9.03-5.37c2.96-1.89,5.82-3.94,8.56-6.14c1.33-1.07,2.61-2.19,3.86-3.36
				c0.53-0.5-0.27-1.29-0.79-0.8c-5.04,4.56-10.54,8.56-16.43,11.95c-2.8,1.89-5.85,3.39-9.05,4.46c-2.56,0.74-5.25,0.84-7.86,0.3
				c-1.15-0.22-2.21-0.76-3.05-1.57c-0.84-0.95-1.45-2.07-1.79-3.29c-0.8-2.37-0.84-4.94-0.11-7.34c0.94-2.51,2.12-4.92,3.54-7.2
				c1.39-2.42,2.83-4.82,4.44-7.11c3.38-4.76,7.29-9.12,11.65-13c4.43-3.9,9.14-7.46,14.11-10.65c5.17-3.38,11.01-7.23,17.47-6.83
				c5.03,0.31,10.85,3.94,10.45,9.61c-0.58,3.05-1.88,5.92-3.79,8.37c-1.43,2.33-3,4.57-4.7,6.7c-3.79,4.57-7.82,8.94-12.08,13.07
				c-0.9,0.9-1.79,1.78-2.69,2.65C789.78,260.8,790.32,261.34,790.7,260.99"/>
			<path id="Tracé_259" class="st7" d="M781.68,241.6c-2.71,0.2-5.02,2.06-5.8,4.67c-0.71,2.59,0.15,5.35,2.19,7.08
				c1.99,1.42,4.6,1.62,6.78,0.5c2.92-1.61,4.24-5.12,3.1-8.26c-1.07-2.5-3.56-4.08-6.27-3.98"/>
			<path id="Tracé_260" class="st7" d="M800.42,274.56c-1.76,0.13-3.26,1.34-3.77,3.03c-0.46,1.68,0.1,3.48,1.43,4.61
				c1.29,0.92,2.99,1.05,4.41,0.33c1.91-1.05,2.76-3.34,2.02-5.38C803.81,275.51,802.19,274.48,800.42,274.56"/>
			<path id="Tracé_261" class="st7" d="M765.76,211.27c-1.76,0.13-3.26,1.34-3.77,3.03c-0.46,1.68,0.1,3.48,1.43,4.61
				c1.29,0.92,2.99,1.05,4.41,0.33c1.91-1.05,2.76-3.34,2.02-5.38C769.15,212.23,767.52,211.2,765.76,211.27"/>
			<path id="Tracé_262" class="st8" d="M831.22,61.58l19.8,34.56l-47.18,4.04"/>
			<path id="Tracé_263" class="st9" d="M830.82,70.3c-4.81-0.22-8.52-4.31-8.3-9.12c0.22-4.81,4.3-8.54,9.11-8.31
				c4.81,0.22,8.52,4.31,8.3,9.12c0,0,0,0,0,0C839.7,66.8,835.63,70.52,830.82,70.3C830.82,70.3,830.82,70.3,830.82,70.3"/>
			<path id="Tracé_264" class="st10" d="M850.62,104.87c-4.81-0.22-8.52-4.31-8.3-9.12c0.22-4.81,4.3-8.54,9.11-8.31
				c4.81,0.22,8.52,4.31,8.3,9.12c0,0,0,0,0,0C859.5,101.37,855.42,105.09,850.62,104.87C850.62,104.87,850.62,104.87,850.62,104.87
				"/>
			<path id="Tracé_265" class="st11" d="M804.55,108.96c-4.81-0.22-8.52-4.31-8.3-9.12c0.22-4.81,4.3-8.54,9.11-8.31
				c4.81,0.22,8.52,4.31,8.3,9.12c0,0,0,0,0,0C813.43,105.46,809.36,109.18,804.55,108.96
				C804.55,108.96,804.55,108.96,804.55,108.96"/>
			<path id="Tracé_266" class="st8" d="M-58.16,35.95l-33.99-0.9l18.05-36.29"/>
			<path id="Tracé_267" class="st9" d="M-64.33,31.78c2.3-3.41,6.93-4.31,10.34-2.01c3.41,2.3,4.31,6.94,2.01,10.36
				c-2.3,3.41-6.93,4.31-10.34,2.01c0,0,0,0,0,0C-65.73,39.83-66.63,35.19-64.33,31.78C-64.33,31.78-64.33,31.78-64.33,31.78"/>
			<path id="Tracé_268" class="st10" d="M-98.33,30.87c2.3-3.42,6.93-4.32,10.34-2.02c3.41,2.3,4.31,6.94,2.01,10.35
				c-2.3,3.42-6.93,4.32-10.34,2.02C-99.72,38.92-100.62,34.29-98.33,30.87C-98.33,30.87-98.33,30.87-98.33,30.87"/>
			<path id="Tracé_269" class="st11" d="M-80.81-4.63c2.3-3.41,6.93-4.31,10.34-2.01c3.41,2.3,4.31,6.94,2.01,10.36
				c-2.3,3.41-6.93,4.31-10.34,2.01c0,0,0,0,0,0C-82.22,3.42-83.11-1.21-80.81-4.63C-80.81-4.62-80.81-4.62-80.81-4.63"/>
			<path id="Tracé_270" class="st12" d="M-68.18,113.08l106.1-14.64l-58.22,90.36l-4.16-49.26L-68.18,113.08z"/>
			<path id="Tracé_271" class="st2" d="M-35,134.03c-0.07-0.25,0.04-0.52,0.28-0.63l72.4-35.43c0.24-0.11,0.52-0.04,0.67,0.18
				c0.15,0.22,0.11,0.52-0.09,0.7l-61.8,54.17c-0.22,0.19-0.56,0.17-0.75-0.05c-0.19-0.22-0.17-0.56,0.05-0.75l58.8-51.54
				l-68.82,33.68c-0.26,0.13-0.58,0.02-0.71-0.24C-34.98,134.08-34.99,134.05-35,134.03"/>
			<path id="Tracé_272" class="st2" d="M-24.97,139.68c-0.07-0.23,0.02-0.47,0.22-0.6L37.62,98c0.25-0.16,0.58-0.09,0.74,0.16
				c0.16,0.25,0.09,0.58-0.16,0.74l0,0l-62.37,41.09c-0.24,0.16-0.57,0.09-0.73-0.15c-0.03-0.04-0.05-0.09-0.06-0.14"/>
			<path id="Tracé_273" class="st10" d="M-33.82,140.11c-0.08-0.28,0.08-0.58,0.36-0.66c0.07-0.02,0.15-0.03,0.22-0.02
				c1.4,0.2,2.82,0.45,4.23,0.76c0.29,0.06,0.47,0.35,0.41,0.63c-0.06,0.29-0.34,0.47-0.63,0.41c-1.39-0.3-2.79-0.55-4.16-0.74
				C-33.59,140.46-33.76,140.31-33.82,140.11"/>
			<path id="Tracé_274" class="st10" d="M-106.29,238.48c-0.24-0.8-0.47-1.6-0.67-2.4c-0.16-0.63-0.31-1.26-0.45-1.89
				c-0.06-0.29,0.12-0.57,0.4-0.63c0.26-0.08,0.53,0.06,0.61,0.32c0.01,0.03,0.02,0.06,0.02,0.09c0.14,0.62,0.28,1.24,0.45,1.86
				c0.52,2.06,1.17,4.09,1.94,6.07c0.12,0.25,0.02,0.54-0.23,0.66c-0.02,0.01-0.05,0.02-0.07,0.03c-0.27,0.11-0.58-0.03-0.69-0.3
				c0,0,0,0,0,0C-105.46,241.05-105.9,239.78-106.29,238.48 M-108.6,225.97c-0.01-0.04-0.02-0.08-0.02-0.11
				c-0.21-2.8-0.22-5.62-0.04-8.43c0.02-0.29,0.27-0.52,0.57-0.5c0.29,0.02,0.52,0.27,0.5,0.57c-0.18,2.76-0.17,5.52,0.04,8.28
				c0.03,0.29-0.19,0.55-0.48,0.58C-108.3,226.37-108.53,226.21-108.6,225.97 M-101.26,249.7c-0.1-0.28,0.05-0.58,0.33-0.68
				c0.24-0.08,0.5,0.01,0.63,0.23c1.46,2.33,3.19,4.47,5.18,6.36c0.2,0.21,0.19,0.55-0.02,0.75c-0.2,0.19-0.51,0.2-0.71,0.02
				c-2.05-1.96-3.84-4.17-5.34-6.57C-101.23,249.78-101.25,249.73-101.26,249.7 M-107.5,209.32c-0.02-0.09-0.02-0.18,0-0.27
				c0.59-2.75,1.38-5.46,2.38-8.09c0.1-0.27,0.41-0.41,0.69-0.31c0.27,0.1,0.41,0.41,0.31,0.69l0,0c-0.98,2.58-1.76,5.23-2.34,7.93
				c-0.06,0.29-0.34,0.47-0.63,0.41c-0.19-0.04-0.34-0.18-0.4-0.37 M-89.17,260.9c-0.08-0.28,0.08-0.58,0.36-0.66
				c0.13-0.04,0.26-0.03,0.38,0.03c2.47,1.19,5.09,2.06,7.78,2.59c0.29,0.06,0.47,0.35,0.41,0.63c-0.06,0.29-0.34,0.47-0.63,0.41
				c-2.77-0.55-5.47-1.45-8.02-2.68C-89.03,261.16-89.13,261.04-89.17,260.9 M-101.54,193.77c-0.04-0.14-0.02-0.29,0.05-0.42
				c0.61-1.05,1.27-2.09,1.95-3.09c0.9-1.32,1.88-2.59,2.91-3.81c0.19-0.22,0.53-0.24,0.75-0.04c0.21,0.19,0.24,0.51,0.06,0.73
				c-1.01,1.19-1.96,2.43-2.85,3.72c-0.67,0.97-1.31,1.99-1.91,3.02c-0.15,0.25-0.47,0.34-0.73,0.19c0,0,0,0,0,0
				C-101.42,194.01-101.51,193.9-101.54,193.77 M-72.48,264.95l-0.01-0.53l0.07-0.53l0.24,0.01c1.34,0.07,2.69,0.11,4.03,0.16
				s2.69,0.08,4.03,0.15c0.29,0.02,0.52,0.27,0.5,0.56c-0.02,0.29-0.27,0.52-0.56,0.5c-1.33-0.07-2.66-0.11-4-0.15
				c-1.33-0.04-2.72-0.09-4.07-0.16L-72.48,264.95z M-72.49,264.42L-72.49,264.42z M-90.8,181.11c-0.06-0.2,0-0.43,0.17-0.56
				c2.17-1.8,4.49-3.4,6.94-4.8c0.25-0.14,0.58-0.06,0.72,0.2c0.15,0.25,0.07,0.57-0.18,0.72c0,0-0.01,0.01-0.01,0.01
				c-2.39,1.36-4.66,2.93-6.79,4.69c-0.23,0.19-0.56,0.16-0.75-0.07c0,0,0,0,0,0C-90.74,181.24-90.78,181.18-90.8,181.11
				 M-56.4,266.03c-0.09-0.28,0.07-0.58,0.35-0.67c0.09-0.03,0.19-0.03,0.29-0.01c0.81,0.21,1.6,0.45,2.34,0.71
				c1.92,0.69,3.72,1.68,5.34,2.94c0.23,0.18,0.27,0.51,0.09,0.75s-0.51,0.27-0.75,0.09c-1.53-1.19-3.23-2.12-5.04-2.77
				c-0.71-0.25-1.47-0.48-2.25-0.67C-56.2,266.35-56.35,266.22-56.4,266.03 M-77.27,175.87v-0.02c-0.72-2.76-0.98-5.62-0.77-8.46
				c0.02-0.29,0.27-0.51,0.57-0.49c0.29,0.02,0.51,0.27,0.49,0.57c-0.2,2.73,0.05,5.47,0.74,8.11c0.08,0.28-0.08,0.58-0.37,0.66
				S-77.19,176.15-77.27,175.87 M-73.71,183.38c-0.09-0.28,0.07-0.58,0.35-0.67c0.22-0.07,0.45,0.01,0.59,0.2
				c0.24,0.33,0.49,0.65,0.76,0.96c1.49,1.76,3.29,3.23,5.31,4.34c0.26,0.14,0.35,0.47,0.21,0.72c-0.14,0.26-0.47,0.35-0.72,0.21
				l0,0c-2.13-1.17-4.04-2.73-5.61-4.59c-0.28-0.33-0.54-0.67-0.8-1.01C-73.66,183.49-73.69,183.44-73.71,183.38 M-76.35,172.9
				c-0.08-0.27,0.06-0.56,0.33-0.66c0.65-0.23,1.3-0.44,1.96-0.64c2.04-0.62,4.12-1.09,6.22-1.41c0.29-0.06,0.57,0.12,0.63,0.41
				c0.06,0.29-0.12,0.57-0.41,0.63c-0.02,0-0.04,0.01-0.06,0.01c-2.06,0.31-4.09,0.77-6.08,1.37c-0.64,0.2-1.28,0.41-1.91,0.63
				c-0.27,0.09-0.57-0.05-0.67-0.33L-76.35,172.9 M-76.12,159.48c-0.04-0.12-0.03-0.25,0.02-0.36l0.22-0.52
				c1.08-2.42,2.49-4.69,4.18-6.73c0.17-0.24,0.5-0.3,0.74-0.13c0.24,0.17,0.3,0.5,0.13,0.74c-0.02,0.02-0.03,0.05-0.05,0.07
				c-1.63,1.97-2.99,4.15-4.03,6.49l-0.22,0.5c-0.12,0.27-0.43,0.4-0.7,0.28c-0.14-0.06-0.25-0.18-0.3-0.33 M-59.56,191.34
				c-0.02-0.07-0.03-0.14-0.02-0.21c0.03-0.29,0.29-0.5,0.58-0.47c0,0,0,0,0,0c2.4,0.27,4.83,0.06,7.14-0.63
				c0.29-0.09,0.57-0.18,0.85-0.28c0.27-0.09,0.57,0.05,0.67,0.32v0.03c0.08,0.27-0.06,0.56-0.33,0.65c-0.3,0.11-0.6,0.21-0.9,0.3
				c-2.45,0.73-5.02,0.96-7.56,0.67C-59.33,191.69-59.5,191.55-59.56,191.34 M-59.95,170.46c-0.02-0.06-0.03-0.12-0.02-0.19
				c0.02-0.29,0.27-0.52,0.56-0.5l0.76,0.05c2.59,0.15,5.14,0.7,7.56,1.63c0.27,0.11,0.4,0.42,0.29,0.69
				c-0.11,0.27-0.42,0.4-0.69,0.29c-2.32-0.89-4.76-1.41-7.24-1.55l-0.74-0.05C-59.69,170.82-59.88,170.67-59.95,170.46
				 M-65.71,146.69c-0.07-0.22,0.01-0.45,0.2-0.59c2.3-1.65,4.78-3.04,7.39-4.12c0.27-0.11,0.58,0.02,0.69,0.29
				c0.11,0.27-0.02,0.58-0.29,0.7c-2.53,1.05-4.94,2.39-7.17,4c-0.24,0.17-0.57,0.12-0.74-0.12c0,0,0,0,0,0
				C-65.66,146.79-65.69,146.74-65.71,146.69 M-44.92,185.39c-0.04-0.13-0.03-0.26,0.03-0.38c0.99-2.47,0.78-5.27-0.57-7.56
				c-0.14-0.26-0.05-0.58,0.21-0.72c0.26-0.14,0.57-0.05,0.72,0.21c1.51,2.59,1.74,5.74,0.6,8.52c-0.12,0.27-0.44,0.38-0.7,0.26
				c0,0,0,0,0,0C-44.77,185.65-44.87,185.53-44.92,185.39 M-50.43,140.29c0-0.02,0-0.04-0.01-0.06c-0.05-0.29,0.14-0.57,0.43-0.62
				c2.77-0.5,5.58-0.76,8.4-0.77c0.29,0,0.53,0.24,0.53,0.53c0,0.29-0.23,0.53-0.52,0.53c0,0,0,0,0,0c-2.75,0.01-5.5,0.26-8.21,0.75
				C-50.09,140.71-50.35,140.55-50.43,140.29"/>
			<path id="Tracé_275" class="st10" d="M-43.31,280.53c-0.02-0.06-0.03-0.13-0.02-0.19c0.1-1.35-0.08-2.7-0.52-3.98
				c-0.1-0.28,0.05-0.58,0.33-0.68c0.28-0.1,0.58,0.05,0.68,0.33l0,0c0.49,1.41,0.68,2.91,0.58,4.4c-0.02,0.29-0.27,0.51-0.56,0.5
				C-43.06,280.9-43.25,280.74-43.31,280.53"/>
			<path id="Tracé_276" class="st13" d="M-22.63,324.74h-99.98c0,0,13.5-26.94,29.89-19.03c18.73-22.56,40.38-11.15,41.55,4.54
				C-36.54,298.98-22.63,324.74-22.63,324.74"/>
			<path id="Tracé_277" class="st13" d="M962.55,372.46h-92.86c0,0,0-20.55,26.77-10.85c4.46-35.85,48.49-31.53,39.58-2.6
				C949.63,348.53,962.55,372.46,962.55,372.46"/>
			<path id="Tracé_278" class="st14" d="M433.2,0.32H320.5c0,0,11.64-29.14,44.22-16.76c11.09-27.27,40.18-17.42,38.43,1.17
				C426.07-30.08,433.2,0.32,433.2,0.32"/>
			<g id="Groupe_76" class="st15">
				<g>
					<g id="Groupe_75">
						<path id="Tracé_279" class="st16" d="M559.01,504.93c0,14.4-86.08,26.07-192.26,26.07s-192.26-11.66-192.26-26.07
							c0-14.41,86.08-26.07,192.26-26.07S559.01,490.53,559.01,504.93"/>
					</g>
				</g>
			</g>
			<path id="Tracé_280" class="st17" d="M615.84,502.81c-7.87,2.57-486.35-3.23-486.35-3.23l83.74-45.56l318.18,5.95
				C531.42,459.97,625.41,499.68,615.84,502.81"/>
			<path id="Tracé_281" class="st18" d="M604.35,490.63l-16.07-13.55c0,0-98.55-13.72-129.42-16.91
				c-86.17-8.92-87.95,18.84-87.95,18.84l224.42,14.6L604.35,490.63z"/>
			<path id="Tracé_282" class="st18" d="M129.84,495.62l3.24-3.61c0,0,114.8-27.53,145.6-31.4c85.95-10.76,88.34,16.95,88.34,16.95
				l-224.05,19.41L129.84,495.62z"/>
			<path id="Tracé_283" class="st7" d="M152.72,472.31l25.94-15.7c0,0,62.27-20.78,90.54-31.53c28.02-10.66,59.15-11.77,73.88-8.75
				s25.35,18.17,25.35,18.17l0.1,28.03L152.72,472.31z"/>
			<path id="Tracé_284" class="st7" d="M581.94,468.2l-28.69-20.86c-28.19-5.19-55.87-12.85-82.73-22.9
				c-28.35-10.54-58.58-13.09-73.23-9.75c-14.66,3.34-31.73,19.53-31.73,19.53l0.41,28.83L581.94,468.2z"/>
			<path id="Tracé_285" class="st12" d="M395.11,406.57c44.6-23.44,75.45-16.47,75.45-16.47c8.99,1.64,17.78,4.2,26.25,7.63
				c10.23,4.29,18.16,9.35,31.06,10.24c2.76,0.19,5.53,0.18,8.28-0.03l28.57,26.35c-7.29,1.64-14.76,2.42-22.23,2.3
				c-8.11-0.17-16.16-1.35-23.97-3.51c-30.93-8.04-32.9-12.78-49.93-15.74c-22.36-3.88-52.44-2.85-84.69,17.32
				c-7.84,4.55-14.11,11.38-17.98,19.58c1.24-11.57,3.13-27.48,3.13-27.48S384.15,412.32,395.11,406.57"/>
			<path id="Tracé_286" class="st19" d="M348.94,478.06l20.4-0.91l-1.69-13.2c0,0-5.26-18.64-19.33-25.05
				c-10.56-4.81-39.23-13.9-114.05,10.97c-67.66,22.5-81.28,21.85-81.28,21.85l-22.1,22.31c0,0,80.13-7.72,113.41-14.64
				c33.03-6.86,48.67-16.43,79.47-13.38c20.29,2.02,25.14,11.46,25.14,11.46"/>
			<path id="Tracé_287" class="st19" d="M359.15,476.36l0.99-9.56c0,0,5.28-16.96,19.21-23.67c10.45-5.04,38.17-20.71,113.5,2.56
				c68.13,21.05,87.29,21.53,87.29,21.53l17.41,22.38c0,0-83.46-6.26-116.88-12.47c-33.17-6.16-60.27-10.69-80.5-8.08
				s-19.56,8.86-19.56,8.86"/>
			<path id="Tracé_288" class="st20" d="M604.77,490.35l-216.17-13.53c-1-0.07-3.36-0.17-5.13-0.22c-0.07-0.02-0.15-0.04-0.22-0.06
				c-1.01-0.15-1.95,0.54-2.1,1.56c0,0.03-0.01,0.06-0.01,0.08c-0.78,8.21-7.5,14.59-15.73,14.93h-0.6
				c-8.24-0.13-15.1-6.36-16.05-14.56c-0.12-1.01-1.04-1.73-2.05-1.6c-0.02,0-0.04,0-0.06,0.01c-0.02,0-0.05,0.01-0.07,0.02h-0.03
				l-215.47,18.17c-1.06,0.12-1.83,1.08-1.71,2.14c0.11,1.03,1.02,1.79,2.05,1.72l214.64-15.63c2.74,8.03,10.31,13.4,18.79,13.32
				h0.6c8.53-0.11,16.03-5.71,18.55-13.88l220.54,11.42c1.06,0.11,2.02-0.66,2.13-1.73c0.11-1.07-0.66-2.02-1.72-2.13
				c-0.05-0.01-0.1-0.01-0.15-0.01"/>
			<path id="Tracé_289" class="st21" d="M365.37,468.89c-3.52-17.91-22.3-25.63-36.99-26.26c-14.7-0.64-28.9,4.69-42.85,9.36
				c-45.27,14.96-92.22,24.24-139.77,27.63"/>
			<path id="Tracé_290" class="st21" d="M137.4,487.35c10.3,2.48,86.24-10.14,113.22-18.18c25.11-7.49,52.04-15.25,78.23-14.33
				c7.42,0.26,15.15,1.55,21.07,6.04c5.49,4.23,8.77,10.73,8.91,17.66"/>
			<path id="Tracé_291" class="st21" d="M365.77,468.9c3.26-7.63,14.6-17.56,22.23-20.8c7.75-2.98,15.99-4.52,24.3-4.52
				c29.96-1,58.62,10.32,88.11,15.75c33.35,6.15,70.84,13.32,84.34,13.76"/>
			<path id="Tracé_292" class="st21" d="M519.96,476.63c14.81,2.41,29.78,3.75,44.78,3.99"/>
			<path id="Tracé_293" class="st21" d="M368.12,479.64c3.13-7.21,14.37-15.38,21.1-19.43c15.11-9.11,31.03-8.49,49.26-5.29
				c12.99,2.28,25.35,7.2,37.9,11.26"/>
			<path id="Tracé_294" class="st21" d="M148.61,475.91c41.26-8.3,69.67-14.95,106.82-25.21c24.24-6.69,47.67-15.67,71.51-14.51
				c14.37,0.7,33.35,3.17,38.93,28.54"/>
			<path id="Tracé_295" class="st21" d="M365.37,467.43c1.97-9.63,10.23-16.79,19.05-21.11c18.09-8.87,39.24-8.61,59.25-6.33
				c47.84,5.45,88.6,20.69,136.32,27.11"/>
			<path id="Tracé_296" class="st22" d="M365.34,492.81h-0.53c-8.75,0.09-15.92-6.93-16.01-15.7c0,0,0,0,0,0
				c5.35-1.64,10.93-2.44,16.53-2.38c5.28,0.17,10.54,0.85,15.69,2.04C381.11,485.53,374.09,492.71,365.34,492.81"/>
			<path id="Tracé_297" class="st7" d="M347.48,421.17c-3.91-4.71-8.46-8.85-13.52-12.3c-37.09-26.24-72.53-20.6-72.53-20.6
				c-9,1.6-17.81,4.11-26.3,7.49c-10.26,4.24-18.21,9.25-31.12,10.07c-2.76,0.18-5.53,0.15-8.28-0.08l-28.71,26.19
				c7.28,1.69,14.74,2.5,22.22,2.42c8.11-0.12,16.17-1.26,23.99-3.38c30.97-7.87,32.96-12.61,50.03-15.47
				c16.44-2.63,33.27-1.3,49.1,3.86c13.06,4.65,25.32,11.3,36.34,19.72c5.96,4.26,11.65,8.9,17.02,13.89
				c-3.78-8.07-7.32-14.55-10.02-19.21c-2.4-4.42-5.15-8.64-8.23-12.61"/>
			<path id="Tracé_298" class="st23" d="M357.49,400.66c-6.05-14.14-15.33-25.58-31.25-35.37c-26.67-16.39-37.35-12.16-62.47-27.61
				c-12.46-7.67-19.51-17.8-24.95-22.74c-5.25,10.71-37.62,67.47-44.89,80.71c23.06,7.24,44.1,7.38,57.02,9.21
				c33.67,4.77,52.49,0.11,74.55,12.03c9.04,4.95,17.51,10.87,25.26,17.67c6.53,6.88,13.66,17.04,15.12,25.39
				c-0.09-10.74-0.78-21.47-2.06-32.13C362.27,417.82,360.83,408.47,357.49,400.66"/>
			<path id="Tracé_299" class="st24" d="M391.98,429.82c-0.03-0.07-0.05-0.15-0.07-0.22c-2.49-5.41-5.62-10.5-9.33-15.16
				l-7.61,6.01c2.93,4.54,5.48,9.33,7.61,14.3c0.06,0.16,0.11,0.34,0.17,0.52c0.58-0.43,1.14-0.84,1.64-1.19
				C386.84,432.53,389.38,431.11,391.98,429.82"/>
			<path id="Tracé_300" class="st25" d="M391.98,429.82c-2.6,1.29-5.14,2.71-7.59,4.26c-0.5,0.35-1.06,0.76-1.64,1.19
				c1.99,6.66,3.08,32.2,3.64,36.65c0.62,3.28,1.91,6.4,3.81,9.15c0,0,0.38-3.81,0.76-5.91c0.28-1.38,0.73-2.73,1.34-4
				c0.85,1.44,1.77,2.84,2.76,4.19c1.45,1.41,2.98,2.75,4.57,4c-1.75-4.29-2.99-8.77-3.71-13.35c-1.13-7.37-1.24-28.67-3.92-36.2"/>
			<line id="Ligne_5" class="st26" x1="410.86" y1="477.55" x2="559.26" y2="487.75"/>
			<line id="Ligne_6" class="st26" x1="320.76" y1="479.14" x2="210.79" y2="488.41"/>
		</g>
		<g>
			<defs>
				<rect id="SVGID_00000031178263463258656920000014203598768408641950_" x="-110.83" y="488.23" width="353.04" height="150.43"/>
			</defs>
			<clipPath id="SVGID_00000163787778883555770860000000317872897288875711_">
				<use xlink:href="#SVGID_00000031178263463258656920000014203598768408641950_"  style="overflow:visible;"/>
			</clipPath>
			<path id="Tracé_301" style="clip-path:url(#SVGID_00000163787778883555770860000000317872897288875711_);fill:#FDC230;" d="
				M-4.07,595.77c1.5,20.02-6.1,39.66-20.68,53.44c0,0-22.39,4.66-40.3-2.85c-6.5-2.56-12.05-7.07-15.89-12.91
				c5.01-6.1,11.71-10.58,19.26-12.87c-0.85,0.07-20.15,1.43-33.24-26.46c17.84-5.66,28.83-1.79,28.83-1.79
				c-10.59-11.25-13.86-27.56-8.42-42.03c28.72,8.87,27.9,33.13,27.97,33.73c0.27-0.53,8.93-17.82,20.93-22.96
				c11.33,20.93-1.49,44.95-1.88,45.68c0.47-0.45,11.98-11.52,23.44-10.95"/>
			
				<path id="Tracé_302" style="clip-path:url(#SVGID_00000163787778883555770860000000317872897288875711_);fill:none;stroke:#DA963C;stroke-linecap:round;stroke-linejoin:round;" d="
				M-64.06,572.58c0,0,27.09,57.54,45.8,86.7"/>
			
				<path id="Tracé_303" style="clip-path:url(#SVGID_00000163787778883555770860000000317872897288875711_);fill:none;stroke:#DA963C;stroke-linecap:round;stroke-linejoin:round;" d="
				M-73.28,602.02c0,0,10.1,8.19,28.89,10.78"/>
			
				<path id="Tracé_304" style="clip-path:url(#SVGID_00000163787778883555770860000000317872897288875711_);fill:none;stroke:#DA963C;stroke-linecap:round;stroke-linejoin:round;" d="
				M-46.88,606.64c0,0,7.76-7.54,11.93-24.03"/>
			
				<path id="Tracé_305" style="clip-path:url(#SVGID_00000163787778883555770860000000317872897288875711_);fill:none;stroke:#DA963C;stroke-linecap:round;stroke-linejoin:round;" d="
				M-66.8,634.76c11.84,5.27,24.81,7.51,37.74,6.52"/>
			
				<path id="Tracé_306" style="clip-path:url(#SVGID_00000163787778883555770860000000317872897288875711_);fill:none;stroke:#DA963C;stroke-linecap:round;stroke-linejoin:round;" d="
				M-32.58,633.95c6.73-6.98,12.34-14.96,16.61-23.67"/>
			<path id="Tracé_307" style="clip-path:url(#SVGID_00000163787778883555770860000000317872897288875711_);fill:#FD625E;" d="
				M-2.41,635.47c23.2,7.34,60.68,13.7,71.32,29.27c0.38,0.55,0.74,1.13,1.05,1.72c0,0,3.31-24.74,24.32-55.36
				c22.17-32.29,3.55-48.35-12.02-43.1c-6.51-21.78-18.63-18.52-18.63-18.52s-1.57-26.77-13.95-26.72
				c-11.22-25.99-32.76-26.17-32.73-16.25C8.9,498.06,1.15,494.07-4.67,494.5c-7.99,0.57-12.36,9.43-9.01,26.49
				c-10.88,4.49-6.36,22.82,0.09,29.74c-9.15-0.22-6.87,18.86,4.07,29.24c-11.38,3.01-0.18,21.57,6.27,26.02
				C-23.78,606.3-26.43,627.88-2.41,635.47"/>
			
				<path id="Tracé_308" style="clip-path:url(#SVGID_00000163787778883555770860000000317872897288875711_);fill:none;stroke:#AB304E;stroke-linecap:round;stroke-linejoin:round;" d="
				M10.08,522.89c0,0,52.08,105.67,62.64,154.22"/>
			
				<path id="Tracé_309" style="clip-path:url(#SVGID_00000163787778883555770860000000317872897288875711_);fill:none;stroke:#AB304E;stroke-linecap:round;stroke-linejoin:round;" d="
				M87.22,580c-6.1,21.43-14.63,42.09-25.42,61.58"/>
			
				<path id="Tracé_310" style="clip-path:url(#SVGID_00000163787778883555770860000000317872897288875711_);fill:none;stroke:#AB304E;stroke-linecap:round;stroke-linejoin:round;" d="
				M57.95,632.51c0,0-43.53-7.61-59.65-15.32"/>
			
				<path id="Tracé_311" style="clip-path:url(#SVGID_00000163787778883555770860000000317872897288875711_);fill:none;stroke:#AB304E;stroke-linecap:round;stroke-linejoin:round;" d="
				M51.58,614.74c0,0,12.32-24.88,13.77-51.27"/>
			
				<path id="Tracé_312" style="clip-path:url(#SVGID_00000163787778883555770860000000317872897288875711_);fill:none;stroke:#AB304E;stroke-linecap:round;stroke-linejoin:round;" d="
				M45.58,602.83c0,0-23.84,0.08-42-11.32"/>
			
				<path id="Tracé_313" style="clip-path:url(#SVGID_00000163787778883555770860000000317872897288875711_);fill:none;stroke:#AB304E;stroke-linecap:round;stroke-linejoin:round;" d="
				M47.26,535.72c0,0,4.98,28.99-7.33,51.48"/>
			
				<path id="Tracé_314" style="clip-path:url(#SVGID_00000163787778883555770860000000317872897288875711_);fill:none;stroke:#AB304E;stroke-linecap:round;stroke-linejoin:round;" d="
				M33.32,573.49c0,0-24.21-2.19-35.8-11.82"/>
			
				<path id="Tracé_315" style="clip-path:url(#SVGID_00000163787778883555770860000000317872897288875711_);fill:none;stroke:#AB304E;stroke-linecap:round;stroke-linejoin:round;" d="
				M23.71,552.04c0,0-21.6-6.25-30.33-16.85"/>
			
				<path id="Tracé_316" style="clip-path:url(#SVGID_00000163787778883555770860000000317872897288875711_);fill:none;stroke:#AB304E;stroke-linecap:round;stroke-linejoin:round;" d="
				M20.11,543.69c0,0,8.66-13.28,6.72-26.17"/>
			<path id="Tracé_317" style="clip-path:url(#SVGID_00000163787778883555770860000000317872897288875711_);fill:#FDC230;" d="
				M203.26,633.62c-14.82,19.32-37.55,30.92-61.87,31.57c0,0-24.03-13.93-34.15-35.23c-3.8-7.58-5.18-16.15-3.94-24.55
				c9.46-1.46,19.13-0.08,27.81,3.96c-0.83-0.62-19.38-15.03-8.68-50.87c20.7,9.34,27.53,21.74,27.53,21.74
				c-0.49-18.75,9.73-36.15,26.33-44.84c18.81,31.28-1.53,52.57-1.95,53.16c0.67-0.26,22.47-8.89,37.47-3.8
				c-6.66,28.11-37.65,39.44-38.59,39.78C174.02,624.51,193.37,623.82,203.26,633.62"/>
			
				<path id="Tracé_318" style="clip-path:url(#SVGID_00000163787778883555770860000000317872897288875711_);fill:none;stroke:#DA963C;stroke-linecap:round;stroke-linejoin:round;" d="
				M167.75,564.03c0,0-21.96,73.99-28.61,115.51"/>
			
				<path id="Tracé_319" style="clip-path:url(#SVGID_00000163787778883555770860000000317872897288875711_);fill:none;stroke:#DA963C;stroke-linecap:round;stroke-linejoin:round;" d="
				M135.63,583.2c0,0,2.51,15.59,17.41,33.15"/>
			
				<path id="Tracé_320" style="clip-path:url(#SVGID_00000163787778883555770860000000317872897288875711_);fill:none;stroke:#DA963C;stroke-linecap:round;stroke-linejoin:round;" d="
				M155.77,608.76c0,0,13.11-0.53,30.2-12.06"/>
			
				<path id="Tracé_321" style="clip-path:url(#SVGID_00000163787778883555770860000000317872897288875711_);fill:none;stroke:#DA963C;stroke-linecap:round;stroke-linejoin:round;" d="
				M115.05,618.04c6.45,14.36,16.37,26.9,28.86,36.47"/>
			
				<path id="Tracé_322" style="clip-path:url(#SVGID_00000163787778883555770860000000317872897288875711_);fill:none;stroke:#DA963C;stroke-linecap:round;stroke-linejoin:round;" d="
				M146.65,645.03c11.72-0.85,23.24-3.54,34.14-7.95"/>
		</g>
		<g>
			<defs>
				<rect id="SVGID_00000161615728723410084990000017529231166917956258_" x="503.61" y="488.23" width="353.04" height="150.43"/>
			</defs>
			<clipPath id="SVGID_00000070083610649854326180000000373007657610740121_">
				<use xlink:href="#SVGID_00000161615728723410084990000017529231166917956258_"  style="overflow:visible;"/>
			</clipPath>
			<path id="Tracé_323" style="clip-path:url(#SVGID_00000070083610649854326180000000373007657610740121_);fill:#FDC230;" d="
				M749.88,595.77c-1.5,20.02,6.1,39.66,20.69,53.44c0,0,22.39,4.66,40.3-2.85c6.5-2.56,12.05-7.07,15.89-12.91
				c-5.01-6.1-11.71-10.58-19.26-12.87c0.85,0.07,20.15,1.43,33.24-26.46c-17.84-5.66-28.83-1.79-28.83-1.79
				c10.59-11.25,13.86-27.56,8.42-42.03c-28.72,8.87-27.9,33.13-27.97,33.73c-0.27-0.53-8.93-17.82-20.93-22.96
				c-11.33,20.93,1.49,44.95,1.88,45.68c-0.47-0.45-11.98-11.52-23.44-10.95"/>
			
				<path id="Tracé_324" style="clip-path:url(#SVGID_00000070083610649854326180000000373007657610740121_);fill:none;stroke:#DA963C;stroke-linecap:round;stroke-linejoin:round;" d="
				M809.88,572.58c0,0-27.09,57.54-45.8,86.7"/>
			
				<path id="Tracé_325" style="clip-path:url(#SVGID_00000070083610649854326180000000373007657610740121_);fill:none;stroke:#DA963C;stroke-linecap:round;stroke-linejoin:round;" d="
				M819.09,602.02c0,0-10.1,8.19-28.89,10.78"/>
			
				<path id="Tracé_326" style="clip-path:url(#SVGID_00000070083610649854326180000000373007657610740121_);fill:none;stroke:#DA963C;stroke-linecap:round;stroke-linejoin:round;" d="
				M792.7,606.64c0,0-7.76-7.54-11.93-24.03"/>
			
				<path id="Tracé_327" style="clip-path:url(#SVGID_00000070083610649854326180000000373007657610740121_);fill:none;stroke:#DA963C;stroke-linecap:round;stroke-linejoin:round;" d="
				M812.62,634.76c-11.85,5.27-24.81,7.51-37.74,6.52"/>
			
				<path id="Tracé_328" style="clip-path:url(#SVGID_00000070083610649854326180000000373007657610740121_);fill:none;stroke:#DA963C;stroke-linecap:round;stroke-linejoin:round;" d="
				M778.4,633.95c-6.73-6.98-12.34-14.96-16.61-23.67"/>
			<path id="Tracé_329" style="clip-path:url(#SVGID_00000070083610649854326180000000373007657610740121_);fill:#FD625E;" d="
				M748.23,635.47c-23.2,7.34-60.68,13.7-71.32,29.27c-0.38,0.55-0.73,1.13-1.05,1.72c0,0-3.31-24.74-24.31-55.36
				c-22.17-32.29-3.55-48.35,12.02-43.1c6.51-21.78,18.63-18.52,18.63-18.52s1.57-26.77,13.95-26.72
				c11.22-25.99,32.76-26.17,32.73-16.25c8.06-8.45,15.81-12.44,21.63-12.01c7.99,0.57,12.36,9.43,9.01,26.49
				c10.88,4.49,6.36,22.82-0.09,29.74c9.15-0.22,6.87,18.86-4.07,29.24c11.38,3.01,0.18,21.57-6.27,26.02
				C769.61,606.3,772.25,627.88,748.23,635.47"/>
			
				<path id="Tracé_330" style="clip-path:url(#SVGID_00000070083610649854326180000000373007657610740121_);fill:none;stroke:#AB304E;stroke-linecap:round;stroke-linejoin:round;" d="
				M735.74,522.89c0,0-52.08,105.67-62.64,154.22"/>
			
				<path id="Tracé_331" style="clip-path:url(#SVGID_00000070083610649854326180000000373007657610740121_);fill:none;stroke:#AB304E;stroke-linecap:round;stroke-linejoin:round;" d="
				M658.6,580c6.1,21.43,14.63,42.09,25.42,61.58"/>
			
				<path id="Tracé_332" style="clip-path:url(#SVGID_00000070083610649854326180000000373007657610740121_);fill:none;stroke:#AB304E;stroke-linecap:round;stroke-linejoin:round;" d="
				M687.86,632.51c0,0,43.53-7.61,59.65-15.32"/>
			
				<path id="Tracé_333" style="clip-path:url(#SVGID_00000070083610649854326180000000373007657610740121_);fill:none;stroke:#AB304E;stroke-linecap:round;stroke-linejoin:round;" d="
				M694.23,614.74c0,0-12.32-24.88-13.77-51.27"/>
			
				<path id="Tracé_334" style="clip-path:url(#SVGID_00000070083610649854326180000000373007657610740121_);fill:none;stroke:#AB304E;stroke-linecap:round;stroke-linejoin:round;" d="
				M700.24,602.83c0,0,23.84,0.08,42-11.32"/>
			
				<path id="Tracé_335" style="clip-path:url(#SVGID_00000070083610649854326180000000373007657610740121_);fill:none;stroke:#AB304E;stroke-linecap:round;stroke-linejoin:round;" d="
				M698.56,535.72c0,0-4.99,29,7.34,51.48"/>
			
				<path id="Tracé_336" style="clip-path:url(#SVGID_00000070083610649854326180000000373007657610740121_);fill:none;stroke:#AB304E;stroke-linecap:round;stroke-linejoin:round;" d="
				M712.5,573.49c0,0,24.2-2.19,35.8-11.82"/>
			
				<path id="Tracé_337" style="clip-path:url(#SVGID_00000070083610649854326180000000373007657610740121_);fill:none;stroke:#AB304E;stroke-linecap:round;stroke-linejoin:round;" d="
				M722.11,552.04c0,0,21.6-6.25,30.33-16.85"/>
			
				<path id="Tracé_338" style="clip-path:url(#SVGID_00000070083610649854326180000000373007657610740121_);fill:none;stroke:#AB304E;stroke-linecap:round;stroke-linejoin:round;" d="
				M725.71,543.69c0,0-8.66-13.28-6.72-26.17"/>
			<path id="Tracé_339" style="clip-path:url(#SVGID_00000070083610649854326180000000373007657610740121_);fill:#FDC230;" d="
				M542.55,633.62c14.82,19.32,37.55,30.92,61.87,31.57c0,0,24.03-13.93,34.15-35.23c3.8-7.58,5.18-16.15,3.94-24.55
				c-9.45-1.46-19.13-0.08-27.8,3.96c0.83-0.62,19.38-15.03,8.68-50.87c-20.71,9.34-27.53,21.74-27.53,21.74
				c0.49-18.75-9.73-36.15-26.33-44.84c-18.81,31.28,1.53,52.57,1.95,53.16c-0.67-0.26-22.47-8.89-37.47-3.8
				c6.66,28.11,37.65,39.44,38.59,39.78C571.8,624.51,552.46,623.82,542.55,633.62"/>
			
				<path id="Tracé_340" style="clip-path:url(#SVGID_00000070083610649854326180000000373007657610740121_);fill:none;stroke:#DA963C;stroke-linecap:round;stroke-linejoin:round;" d="
				M578.06,564.03c0,0,21.96,73.99,28.61,115.51"/>
			
				<path id="Tracé_341" style="clip-path:url(#SVGID_00000070083610649854326180000000373007657610740121_);fill:none;stroke:#DA963C;stroke-linecap:round;stroke-linejoin:round;" d="
				M610.18,583.2c0,0-2.51,15.59-17.41,33.15"/>
			
				<path id="Tracé_342" style="clip-path:url(#SVGID_00000070083610649854326180000000373007657610740121_);fill:none;stroke:#DA963C;stroke-linecap:round;stroke-linejoin:round;" d="
				M590.04,608.76c0,0-13.11-0.53-30.2-12.06"/>
			
				<path id="Tracé_343" style="clip-path:url(#SVGID_00000070083610649854326180000000373007657610740121_);fill:none;stroke:#DA963C;stroke-linecap:round;stroke-linejoin:round;" d="
				M630.77,618.04c-6.45,14.36-16.37,26.9-28.86,36.47"/>
			
				<path id="Tracé_344" style="clip-path:url(#SVGID_00000070083610649854326180000000373007657610740121_);fill:none;stroke:#DA963C;stroke-linecap:round;stroke-linejoin:round;" d="
				M599.17,645.03c-11.72-0.85-23.24-3.54-34.14-7.95"/>
		</g>
		<g>
			<path id="Tracé_345" class="st2" d="M669.92,404.57c-5.18,2.32-9.56,6.12-12.58,10.94c-1.05,1.52-2,3.11-2.84,4.75l-16.95-8.47
				c0,0,9.08-10.28,4.76-22.71c-3.91-11.27-4.17-23.2,6.12-28.26c1.13-0.56,2.31-1.01,3.52-1.35c16.06-4.59,32.82,4.63,37.57,20.67
				C693.03,393.56,679.47,401.08,669.92,404.57"/>
			<path id="Tracé_346" class="st7" d="M641.73,415.7c5.66-7.94,10.72-16.3,15.13-25l0.4,0.16c1.5,0.58,3.04,1.03,4.62,1.35
				c-5.98,11.5-13.4,27.57-13.48,27.74l0.51,0.24c0.08-0.17,7.56-16.37,13.55-27.87c4.96,0.87,9.79,0.35,12.1-1.54
				c1.26-0.9,1.82-2.5,1.39-3.99c-0.67-1.8-2.33-3.03-4.24-3.16c-1.51-0.15-5.36,0.15-8.56,6.16c-0.33,0.61-0.67,1.25-1,1.9
				c-1.61-0.3-3.18-0.75-4.7-1.35l-0.37-0.15c1.05-2.19,1.87-4.47,2.46-6.82c0.98-4.39-0.68-6.36-1.76-7.13
				c-1.76-1.16-4.04-1.18-5.82-0.06c-2.22,1.39-3.35,4.02-2.83,6.59c0.45,3.14,2.99,5.84,7.22,7.71
				c-4.39,8.66-9.43,16.99-15.07,24.89L641.73,415.7z M659.01,383.24c-0.58,2.32-1.39,4.57-2.42,6.73c-2.67-1.18-6.36-3.49-6.9-7.28
				c-0.48-2.35,0.55-4.75,2.57-6.04c1.59-1.01,3.63-1,5.21,0.03c0.66,0.48,1.16,1.15,1.44,1.92
				C659.39,380.11,659.42,381.72,659.01,383.24 M675.42,386.94c0.37,1.28-0.12,2.65-1.22,3.4c-2.13,1.75-6.75,2.23-11.47,1.44
				c0.31-0.6,0.62-1.18,0.92-1.74c3.05-5.72,6.62-6.01,8.02-5.87c1.61,0.11,3.03,1.09,3.69,2.57
				C675.38,386.81,675.4,386.87,675.42,386.94"/>
			<path id="Tracé_347" class="st7" d="M647.84,420.15l0.18-0.39c0.3-0.66,7.39-15.98,13.23-27.26c-1.41-0.31-2.8-0.72-4.14-1.25
				l-0.04-0.01c-4.38,8.59-9.4,16.85-15,24.7l-0.25,0.34l-1.14-0.82l0.25-0.35c5.54-7.77,10.5-15.94,14.85-24.45
				c-4.12-1.92-6.62-4.71-7.07-7.86c-0.54-2.74,0.67-5.53,3.04-7.01c1.93-1.21,4.39-1.18,6.29,0.07c1.16,0.84,2.96,2.94,1.93,7.57
				c-0.55,2.24-1.33,4.42-2.3,6.5c1.38,0.53,2.8,0.95,4.25,1.24c0.29-0.55,0.57-1.09,0.86-1.62c3.33-6.24,7.39-6.54,8.98-6.38
				c2.08,0.14,3.88,1.5,4.6,3.46c0.49,1.66-0.13,3.44-1.53,4.44c-2.28,1.87-7.02,2.53-12.14,1.68
				c-5.82,11.23-13.08,26.9-13.39,27.57l-0.18,0.39L647.84,420.15z M656.84,376.79c-1.4-0.69-3.05-0.6-4.37,0.22
				c-1.87,1.2-2.81,3.43-2.37,5.61c0.48,3.36,3.58,5.52,6.27,6.78c0.94-2.01,1.68-4.1,2.22-6.25c0.39-1.44,0.37-2.97-0.08-4.4
				c-0.25-0.69-0.7-1.29-1.29-1.73C657.1,376.93,656.97,376.86,656.84,376.79 M673.32,385.1c-0.52-0.28-1.1-0.46-1.69-0.51
				c-1.31-0.13-4.68,0.15-7.6,5.65c-0.21,0.39-0.43,0.8-0.64,1.21c4.5,0.65,8.69,0.09,10.55-1.44c0.95-0.65,1.39-1.83,1.08-2.94
				c-0.02-0.06-0.04-0.11-0.06-0.17C674.65,386.12,674.07,385.48,673.32,385.1"/>
			<path id="Tracé_348" class="st35" d="M643.57,436.99c-3.58,5.61-15.13,0-13.36-6.79c-1.37-1.78-1.03-4.34,0.75-5.71
				c0.19-0.15,0.4-0.28,0.61-0.39c-0.19-0.63-0.26-1.28-0.21-1.93c0.12-1.76,1.22-3.31,2.84-4c-0.26-1.02-0.16-2.09,0.27-3.04
				c0.69-1.37,1.75-2.53,3.07-3.33l16.95,8.47c0.29,1.51,0.04,3.07-0.72,4.41c-0.65,0.96-1.66,1.62-2.79,1.84
				c0.59,1.12,0.45,2.48-0.35,3.45c-0.89,0.94-2.02,1.62-3.27,1.95c0,0,0.9,5.2-3.81,5.07"/>
			<path id="Tracé_349" class="st9" d="M650.99,426.51l-16.78-8.34c-0.26-1.02-0.16-2.09,0.27-3.05l19.29,9.55
				C653.12,425.63,652.12,426.29,650.99,426.51"/>
			<path id="Tracé_350" class="st9" d="M650.65,429.97c-0.89,0.94-2.02,1.62-3.27,1.95l-15.79-7.81c-0.19-0.63-0.26-1.28-0.21-1.93
				L650.65,429.97z"/>
			<g id="Groupe_85">
				<g>
					<defs>
						<rect id="SVGID_00000083056100566599875450000009314276935247685049_" x="674.29" y="369.29" width="10.84" height="10.98"/>
					</defs>
					<clipPath id="SVGID_00000085930013639643751950000007357714308759320737_">
						<use xlink:href="#SVGID_00000083056100566599875450000009314276935247685049_"  style="overflow:visible;"/>
					</clipPath>
					<g id="Groupe_84" style="clip-path:url(#SVGID_00000085930013639643751950000007357714308759320737_);">
						<path id="Tracé_351" class="st7" d="M675.77,369.58c-5.09,2.24,4.24,11.8,8.2,10.59S680.86,367.33,675.77,369.58"/>
					</g>
				</g>
			</g>
			<g id="Groupe_88">
				<g>
					<defs>
						<rect id="SVGID_00000064344065262529690690000012255315162452830605_" x="678.86" y="383.01" width="7.32" height="7.12"/>
					</defs>
					<clipPath id="SVGID_00000158026196872476434340000006359100672501241781_">
						<use xlink:href="#SVGID_00000064344065262529690690000012255315162452830605_"  style="overflow:visible;"/>
					</clipPath>
					<g id="Groupe_87" style="clip-path:url(#SVGID_00000158026196872476434340000006359100672501241781_);">
						<path id="Tracé_352" class="st7" d="M682.33,383.02c-5.58-0.12-3.66,6.5,0.45,7.09
							C686.89,390.69,687.91,383.13,682.33,383.02"/>
					</g>
				</g>
			</g>
			<path id="Tracé_353" class="st2" d="M97.44,404.51c-1.32,5.53-0.97,11.32,1,16.65c0.56,1.76,1.24,3.49,2.04,5.16l-17.02,8.3
				c0,0-2.62-13.47-15.08-17.61c-11.3-3.76-20.91-10.82-18.65-22.07c0.25-1.24,0.61-2.44,1.08-3.61
				c6.14-15.56,23.65-23.26,39.25-17.27c12.75,5.38,10.45,20.73,7.39,30.44"/>
			<path id="Tracé_354" class="st7" d="M89.1,433.68c-2.84-9.33-6.38-18.44-10.59-27.24l0.37-0.22c1.37-0.83,2.67-1.79,3.88-2.85
				c5.47,11.76,13.67,27.43,13.76,27.6l0.49-0.26c-0.09-0.17-8.36-15.97-13.82-27.73c3.71-3.41,6.25-7.57,6.15-10.56
				c0.06-1.55-0.87-2.97-2.31-3.54c-1.83-0.56-3.82,0-5.08,1.44c-1.04,1.11-3.15,4.34-0.34,10.55c0.29,0.63,0.59,1.28,0.9,1.95
				c-1.21,1.09-2.52,2.07-3.91,2.92c-0.11,0.07-0.22,0.13-0.34,0.2c-1.09-2.16-2.4-4.21-3.91-6.11c-2.89-3.45-5.45-3.33-6.72-2.94
				c-1.99,0.7-3.39,2.5-3.58,4.6c-0.25,2.61,1.14,5.1,3.49,6.26c2.75,1.55,6.45,1.18,10.5-1.04c4.19,8.77,7.71,17.84,10.54,27.14
				L89.1,433.68z M73.92,400.2c1.48,1.87,2.77,3.89,3.85,6.02c-2.56,1.4-6.63,2.93-9.97,1.05c-2.15-1.05-3.43-3.33-3.22-5.72
				c0.17-1.88,1.42-3.49,3.2-4.12c0.78-0.23,1.62-0.22,2.4,0.02C71.66,397.99,72.96,398.94,73.92,400.2 M86.84,389.41
				c1.24,0.49,2.02,1.71,1.95,3.04c0.09,2.76-2.34,6.73-5.84,9.99c-0.28-0.61-0.56-1.2-0.82-1.79c-2.67-5.9-0.73-8.92,0.22-9.94
				c1.06-1.22,2.71-1.74,4.28-1.36c0.06,0.02,0.13,0.04,0.19,0.07"/>
			<path id="Tracé_355" class="st7" d="M96.35,431.54l-0.2-0.38c-0.34-0.64-8.16-15.6-13.53-27.11c-1.1,0.93-2.27,1.78-3.51,2.53
				l-0.03,0.02c4.14,8.71,7.63,17.73,10.43,26.96l0.12,0.4l-1.34,0.41l-0.12-0.41c-2.78-9.13-6.23-18.05-10.31-26.67
				c-4.03,2.1-7.76,2.4-10.52,0.83c-2.51-1.24-3.99-3.9-3.72-6.69c0.22-2.27,1.74-4.21,3.89-4.95c1.37-0.41,4.13-0.56,7.17,3.08
				c1.43,1.8,2.69,3.74,3.75,5.79c1.27-0.77,2.47-1.65,3.58-2.64c-0.26-0.57-0.51-1.12-0.76-1.67c-2.91-6.44-0.67-9.85,0.41-11.02
				c1.38-1.56,3.55-2.17,5.54-1.55c1.61,0.62,2.65,2.2,2.59,3.92c0.1,2.95-2.28,7.12-6.06,10.67c5.34,11.47,13.34,26.77,13.68,27.42
				l0.2,0.38L96.35,431.54z M67.49,397.99c-1.39,0.69-2.33,2.06-2.48,3.61c-0.19,2.22,1,4.32,3,5.29c2.96,1.67,6.55,0.52,9.18-0.85
				c-1.02-1.97-2.22-3.84-3.6-5.58c-0.9-1.19-2.13-2.1-3.53-2.61c-0.7-0.22-1.45-0.23-2.16-0.02
				C67.76,397.88,67.62,397.93,67.49,397.99 M84.11,389.96c-0.54,0.25-1.03,0.6-1.44,1.03c-0.9,0.96-2.72,3.81-0.16,9.48
				c0.19,0.41,0.37,0.82,0.57,1.24c3.25-3.18,5.36-6.85,5.28-9.26c0.07-1.15-0.6-2.22-1.67-2.65l-0.17-0.06
				c-0.8-0.22-1.66-0.14-2.41,0.22"/>
			<path id="Tracé_356" class="st35" d="M107.09,445.18c2.26,6.28-9.22,12.01-13.51,6.48c-4.56-0.02-4-4.79-4-4.79
				c-0.61-0.23-1.17-0.58-1.66-1.01c-1.32-1.17-1.88-2.98-1.44-4.69c-0.96-0.42-1.75-1.15-2.24-2.07c-0.67-1.39-0.94-2.93-0.77-4.47
				l17.02-8.3c1.37,0.69,2.46,1.84,3.05,3.26c0.36,1.1,0.27,2.3-0.24,3.34c1.24,0.21,2.24,1.15,2.52,2.38
				c0.21,1.28,0.05,2.59-0.45,3.78c0,0,4.66,2.47,1.71,6.11"/>
			<path id="Tracé_357" class="st9" d="M103.31,432.9l-16.82,8.25c-0.96-0.42-1.75-1.15-2.24-2.07l19.31-9.52
				C103.92,430.67,103.83,431.87,103.31,432.9"/>
			<path id="Tracé_358" class="st9" d="M105.83,435.29c0.21,1.28,0.05,2.59-0.45,3.78l-15.8,7.79c-0.61-0.23-1.17-0.58-1.66-1.01
				L105.83,435.29z"/>
			<g id="Groupe_91">
				<g>
					<defs>
						<rect id="SVGID_00000145055394055409515360000001149180595957461422_" x="73.21" y="375.03" width="13.58" height="7.02"/>
					</defs>
					<clipPath id="SVGID_00000123420523415748630460000010307263655008305595_">
						<use xlink:href="#SVGID_00000145055394055409515360000001149180595957461422_"  style="overflow:visible;"/>
					</clipPath>
					<g id="Groupe_90" style="clip-path:url(#SVGID_00000123420523415748630460000010307263655008305595_);">
						<path id="Tracé_359" class="st7" d="M73.3,378.56c-1.32,5.41,11.92,3.81,13.38-0.07S74.63,373.15,73.3,378.56"/>
					</g>
				</g>
			</g>
			<g id="Groupe_94">
				<g>
					<defs>
						<rect id="SVGID_00000167376000942400550190000002130671961464418725_" x="86.92" y="379.89" width="7.76" height="6.85"/>
					</defs>
					<clipPath id="SVGID_00000102510986446887679860000016342740690746396322_">
						<use xlink:href="#SVGID_00000167376000942400550190000002130671961464418725_"  style="overflow:visible;"/>
					</clipPath>
					<g id="Groupe_93" style="clip-path:url(#SVGID_00000102510986446887679860000016342740690746396322_);">
						<path id="Tracé_360" class="st7" d="M87.93,381.53c-3.49,4.36,2.93,6.88,5.89,3.96C96.78,382.58,91.43,377.17,87.93,381.53"
							/>
					</g>
				</g>
			</g>
			<path id="Tracé_361" class="st40" d="M370.07,368.81c1.74,2.67,2.65,5.8,2.62,8.99c0.04,1.04,0,2.08-0.1,3.11l10.56,1.15
				c-0.58-4.58,1.16-9.14,4.63-12.16c5.26-4.13,9-9.68,5.67-15.2c-0.37-0.6-0.79-1.17-1.26-1.7c-6.19-7.05-16.89-7.79-23.99-1.66
				c-5.71,5.26-1.59,12.93,1.86,17.49"/>
			<g id="Groupe_97">
				<g>
					<defs>
						<rect id="SVGID_00000003818077080389791470000012096127569891013045_" x="373.32" y="302.21" width="13.46" height="7.48"/>
					</defs>
					<clipPath id="SVGID_00000168826168983525589270000009446735281276127387_">
						<use xlink:href="#SVGID_00000003818077080389791470000012096127569891013045_"  style="overflow:visible;"/>
					</clipPath>
					<g id="Groupe_96" style="clip-path:url(#SVGID_00000168826168983525589270000009446735281276127387_);">
						<path id="Tracé_362" class="st7" d="M386.31,303.92c3.07,4.65-9.94,7.63-12.61,4.47
							C371.03,305.22,383.24,299.27,386.31,303.92"/>
					</g>
				</g>
			</g>
			<g id="Groupe_100">
				<g>
					<defs>
						<rect id="SVGID_00000127037846023892163130000015614223423480430772_" x="367.68" y="310.95" width="7.77" height="6.82"/>
					</defs>
					<clipPath id="SVGID_00000011000628099044413980000002950467341468250291_">
						<use xlink:href="#SVGID_00000127037846023892163130000015614223423480430772_"  style="overflow:visible;"/>
					</clipPath>
					<g id="Groupe_99" style="clip-path:url(#SVGID_00000011000628099044413980000002950467341468250291_);">
						<path id="Tracé_363" class="st7" d="M373.55,311.66c4.76,2.92-0.45,7.46-4.21,5.72S368.79,308.74,373.55,311.66"/>
					</g>
				</g>
			</g>
			<path id="Tracé_364" class="st43" d="M380.05,381.6c0,0-0.81-17.68,2.59-21.59s6.81,1.13,4.27,4.07s-12.85,0.79-15.29-2.93
				c-2.44-3.73,1.79-6.17,5.1-0.76c3.31,5.4-1.15,20.66-1.15,20.66"/>
			<path id="Tracé_365" class="st11" d="M372.68,392.11c0,3.74,7.14,4.6,8.36,0.86c1.19-0.43,1.8-1.73,1.38-2.92
				c-0.05-0.13-0.1-0.25-0.17-0.37c0.27-0.24,0.5-0.53,0.67-0.85c0.47-0.87,0.43-1.93-0.13-2.75c0.43-0.4,0.71-0.94,0.79-1.52
				c0.09-0.86-0.06-1.73-0.44-2.51l-10.56-1.15c-0.59,0.62-0.95,1.44-1,2.3c0.02,0.65,0.29,1.27,0.76,1.72
				c-0.62,0.35-0.96,1.03-0.88,1.74c0.13,0.71,0.46,1.38,0.95,1.91c0,0-1.99,2.19,0.26,3.55"/>
			<path id="Tracé_366" class="st9" d="M372.36,384.91l10.45,1.16c0.43-0.4,0.71-0.94,0.79-1.52l-12-1.36
				C371.61,383.84,371.88,384.46,372.36,384.91"/>
			<path id="Tracé_367" class="st9" d="M371.47,386.63c0.13,0.71,0.46,1.38,0.95,1.91l9.82,1.12c0.28-0.24,0.51-0.53,0.68-0.85
				L371.47,386.63z"/>
		</g>
		<rect id="Rectangle_142" x="-35.07" y="-214.34" class="st2" width="806.1" height="228.75"/>
	</g>
</g>
</svg>
