<svg id="Groupe_7" data-name="Groupe 7" xmlns="http://www.w3.org/2000/svg" xmlns:xlink="http://www.w3.org/1999/xlink" width="30" height="30" viewBox="0 0 30 30">
  <defs>
    <clipPath id="clip-path">
      <rect id="Rectangle_4" data-name="Rectangle 4" width="30" height="30" transform="translate(0)" fill="#fff"/>
    </clipPath>
  </defs>
  <g id="Groupe_6" data-name="Groupe 6" clip-path="url(#clip-path)">
    <path id="Tracé_6" data-name="Tracé 6" d="M15,2.7c4.005,0,4.48.015,6.061.087a8.3,8.3,0,0,1,2.785.516,4.647,4.647,0,0,1,1.725,1.122,4.647,4.647,0,0,1,1.122,1.725,8.3,8.3,0,0,1,.517,2.785c.072,1.582.087,2.056.087,6.061s-.015,4.479-.087,6.061a8.3,8.3,0,0,1-.517,2.785,4.967,4.967,0,0,1-2.847,2.847,8.3,8.3,0,0,1-2.785.517c-1.581.072-2.056.087-6.061.087s-4.48-.015-6.061-.087a8.3,8.3,0,0,1-2.785-.517,4.647,4.647,0,0,1-1.725-1.122,4.648,4.648,0,0,1-1.122-1.725,8.3,8.3,0,0,1-.516-2.785C2.718,19.479,2.7,19.005,2.7,15s.015-4.48.087-6.061a8.3,8.3,0,0,1,.516-2.785A4.648,4.648,0,0,1,4.429,4.429,4.647,4.647,0,0,1,6.153,3.307,8.3,8.3,0,0,1,8.939,2.79C10.52,2.718,10.995,2.7,15,2.7M15,0c-4.074,0-4.584.017-6.184.09a11.009,11.009,0,0,0-3.641.7,7.354,7.354,0,0,0-2.657,1.73A7.353,7.353,0,0,0,.787,5.174a11.011,11.011,0,0,0-.7,3.641C.017,10.415,0,10.926,0,15s.017,4.585.09,6.184a11.012,11.012,0,0,0,.7,3.641,7.352,7.352,0,0,0,1.73,2.657,7.352,7.352,0,0,0,2.657,1.73,11.012,11.012,0,0,0,3.641.7c1.6.073,2.111.09,6.184.09s4.585-.017,6.184-.09a11.013,11.013,0,0,0,3.641-.7,7.671,7.671,0,0,0,4.387-4.387,11.012,11.012,0,0,0,.7-3.641c.073-1.6.09-2.111.09-6.184s-.017-4.585-.09-6.184a11.012,11.012,0,0,0-.7-3.641,7.354,7.354,0,0,0-1.73-2.657A7.354,7.354,0,0,0,24.826.787a11.01,11.01,0,0,0-3.641-.7C19.584.017,19.074,0,15,0m0,7.3A7.7,7.7,0,1,0,22.7,15,7.7,7.7,0,0,0,15,7.3M15,20a5,5,0,1,1,5-5,5,5,0,0,1-5,5M24.807,6.993a1.8,1.8,0,1,1-1.8-1.8,1.8,1.8,0,0,1,1.8,1.8" transform="translate(0)" fill="#fff"/>
  </g>
</svg>
