<svg xmlns="http://www.w3.org/2000/svg" xmlns:xlink="http://www.w3.org/1999/xlink" width="30" height="30" viewBox="0 0 30 30">
  <defs>
    <clipPath id="clip-path">
      <rect id="Rectangle_5" data-name="Rectangle 5" width="30" height="30" fill="#fff"/>
    </clipPath>
  </defs>
  <g id="Groupe_9" data-name="Groupe 9" transform="translate(0.253 0.252)">
    <g id="Groupe_8" data-name="Groupe 8" transform="translate(-0.253 -0.252)" clip-path="url(#clip-path)">
      <path id="Tracé_7" data-name="Tracé 7" d="M27.349,0H2.18A2.18,2.18,0,0,0,0,2.18V27.348a2.18,2.18,0,0,0,2.18,2.18H27.349a2.18,2.18,0,0,0,2.18-2.18V2.18A2.18,2.18,0,0,0,27.349,0M8.8,25.155H4.362v-14.1H8.8ZM6.581,9.1A2.513,2.513,0,0,1,4.022,6.551,2.514,2.514,0,0,1,6.581,4,2.514,2.514,0,0,1,9.141,6.551,2.513,2.513,0,0,1,6.581,9.1M25.167,25.166H20.728v-7.7c0-2.273-.966-2.974-2.212-2.974-1.317,0-2.609.991-2.609,3.03v7.646H11.468v-14.1h4.269v1.954h.057a4.843,4.843,0,0,1,4.219-2.35c2.477,0,5.154,1.469,5.154,5.777Z" transform="translate(0.237 0.236)" fill="#fff"/>
    </g>
  </g>
</svg>
