<svg id="Groupe_126" data-name="Groupe 126" xmlns="http://www.w3.org/2000/svg" xmlns:xlink="http://www.w3.org/1999/xlink" width="72.273" height="83.453" viewBox="0 0 72.273 83.453">
  <defs>
    <clipPath id="clip-path">
      <rect id="Rectangle_70" data-name="Rectangle 70" width="72.272" height="83.453" fill="none"/>
    </clipPath>
  </defs>
  <path id="Tracé_378" data-name="Tracé 378" d="M2.138,61.356V22.1l34-19.629,34,19.629V61.356l-34,19.629ZM36.136,0,0,20.863V62.59L36.136,83.453,72.273,62.59V20.863Z" fill="#fff"/>
  <g id="Groupe_127" data-name="Groupe 127">
    <g id="Groupe_126-2" data-name="Groupe 126" clip-path="url(#clip-path)">
      <path id="Tracé_379" data-name="Tracé 379" d="M88.94,142.42h4.521v8.461a5.2,5.2,0,0,1,4.368-2.077c3.757,0,6.72,2.963,6.72,8.156,0,5.773-3.36,7.789-6.445,7.789a5.106,5.106,0,0,1-4.643-2.474c-.031.489-.061,1.222-.153,2.169H88.94Zm7.667,9.408c-3.329,0-3.329,3.788-3.329,4.765,0,3.513,1.5,5.193,3.543,5.193,3.116,0,3.116-3.879,3.116-4.673,0-1.222-.061-5.284-3.33-5.284" transform="translate(-71.657 -114.744)" fill="#fff"/>
      <path id="Tracé_380" data-name="Tracé 380" d="M184.06,172.587a14.015,14.015,0,0,1-3.513.489c-4.551,0-4.551-2.871-4.551-4.154v-8.461h-2.963v-2.993H176v-3.024l4.49-1.649v4.673h3.666v2.993h-3.666v6.964c.031,1.405.031,2.291,2.047,2.291a11.409,11.409,0,0,0,1.527-.092Z" transform="translate(-139.409 -123.102)" fill="#fff"/>
      <path id="Tracé_381" data-name="Tracé 381" d="M253.411,176.054a34.5,34.5,0,0,0-.214,3.818v11.393c0,5.681-4.735,6.231-7.7,6.231-2.2,0-6.506-.275-6.781-4.948h4.337c.061.458.275,2.138,2.688,2.138a2.638,2.638,0,0,0,2.81-2.016,16.5,16.5,0,0,0,.214-3.666,4.851,4.851,0,0,1-4.154,2.108c-4.429,0-6.506-3.849-6.506-7.575,0-3.91,2.169-7.636,6.6-7.636a4.675,4.675,0,0,1,4.307,2.2l.153-2.046Zm-7.759,11.974c3.177,0,3.177-3.727,3.177-4.4,0-1.741-.336-4.7-3.085-4.7-1.711,0-3.116,1.313-3.116,4.612,0,.763,0,4.49,3.024,4.49" transform="translate(-191.838 -141.719)" fill="#fff"/>
      <rect id="Rectangle_69" data-name="Rectangle 69" width="4.475" height="4.475" transform="translate(10.699 45.224)" fill="#fff"/>
    </g>
  </g>
</svg>
